<svg width="30" height="30" viewBox="0 0 30 30" fill="none" xmlns="http://www.w3.org/2000/svg">
<circle cx="15" cy="15" r="15" fill="#F24E1E"/>
<path d="M14.0489 9.92705C14.3483 9.00574 15.6517 9.00574 15.9511 9.92705L16.5716 11.8369C16.7055 12.2489 17.0894 12.5279 17.5227 12.5279H19.5308C20.4995 12.5279 20.9023 13.7675 20.1186 14.3369L18.494 15.5172C18.1435 15.7719 17.9968 16.2232 18.1307 16.6353L18.7512 18.5451C19.0506 19.4664 17.9961 20.2325 17.2124 19.6631L15.5878 18.4828C15.2373 18.2281 14.7627 18.2281 14.4122 18.4828L12.7876 19.6631C12.0039 20.2325 10.9494 19.4664 11.2488 18.5451L11.8693 16.6353C12.0032 16.2232 11.8565 15.7719 11.506 15.5172L9.88144 14.3369C9.09773 13.7675 9.50051 12.5279 10.4692 12.5279H12.4773C12.9106 12.5279 13.2945 12.2489 13.4284 11.8369L14.0489 9.92705Z" fill="#F5F5F5"/>
</svg>
