<svg width="46" height="59" viewBox="0 0 46 59" fill="none" xmlns="http://www.w3.org/2000/svg">
<path d="M3 1H34.4867L45 9.39181V56.4839C45 57.5884 44.1046 58.4839 43 58.4839H3C1.89543 58.4839 1 57.5884 1 56.4839V3C1 1.89543 1.89543 1 3 1Z" fill="#F1E7DC"/>
<path d="M34.4867 1H3C1.89543 1 1 1.89543 1 3V56.4839C1 57.5884 1.89543 58.4839 3 58.4839H43C44.1046 58.4839 45 57.5884 45 56.4839V9.39181M34.4867 1L45 9.39181M34.4867 1L34.7885 8.80336C34.835 10.0065 35.9262 10.8961 37.1141 10.6992L45 9.39181" stroke="black"/>
<path d="M15.1953 24.4194H30.0985" stroke="black" stroke-linecap="round"/>
<path d="M14.4844 28.6774H29.3876" stroke="black" stroke-linecap="round"/>
<path d="M15.9023 32.9355H30.8056" stroke="black" stroke-linecap="round"/>
</svg>
