<svg width="300" height="300" viewBox="0 0 300 300" fill="none" xmlns="http://www.w3.org/2000/svg">
<circle cx="150" cy="150" r="148.5" fill="#1A64BC" stroke="black" stroke-width="3"/>
<circle cx="177.11" cy="96.1098" r="21.6098" fill="black" stroke="black"/>
<ellipse cx="164.263" cy="88.6402" rx="2.68902" ry="5.07927" fill="white"/>
<ellipse cx="172.627" cy="88.6402" rx="2.68902" ry="5.07927" fill="white"/>
<path d="M169.334 112.244V120.311H172.334V112.244H169.334ZM169.334 120.311C169.334 120.968 168.801 121.5 168.145 121.5V124.5C170.458 124.5 172.334 122.625 172.334 120.311H169.334Z" fill="black"/>
<path d="M186.068 112.244V120.311H189.068V112.244H186.068ZM186.068 120.311C186.068 120.968 185.536 121.5 184.879 121.5V124.5C187.192 124.5 189.068 122.625 189.068 120.311H186.068Z" fill="black"/>
<path d="M61.84 172V155H58.84V152.16H61.84V148.72C61.84 146.8 62.32 145.4 63.28 144.52C64.24 143.64 65.64 143.2 67.48 143.2H69.48V146.08H68C66.9867 146.08 66.2667 146.293 65.84 146.72C65.4133 147.12 65.2 147.813 65.2 148.8V152.16H77.52L77.52 172H74.16L74.16 155H65.2L65.2 172H61.84ZM75.88 148.36C75.24 148.36 74.6933 148.147 74.24 147.72C73.7867 147.267 73.56 146.707 73.56 146.04C73.56 145.4 73.7867 144.867 74.24 144.44C74.6933 144.013 75.24 143.8 75.88 143.8C76.5467 143.8 77.0933 144.013 77.52 144.44C77.9733 144.867 78.2 145.4 78.2 146.04C78.2 146.707 77.9733 147.267 77.52 147.72C77.0933 148.147 76.5467 148.36 75.88 148.36ZM91.4953 172C89.682 172 88.2553 171.56 87.2153 170.68C86.1753 169.8 85.6553 168.213 85.6553 165.92V155H82.2153V152.16H85.6553L86.0953 147.4H89.0153V152.16H94.8553V155H89.0153V165.92C89.0153 167.173 89.2686 168.027 89.7753 168.48C90.282 168.907 91.1753 169.12 92.4553 169.12H94.5353V172H91.4953ZM99.3241 172V152.16H102.364L102.564 155.72C103.204 154.467 104.124 153.48 105.324 152.76C106.524 152.04 107.884 151.68 109.404 151.68C111.751 151.68 113.617 152.4 115.004 153.84C116.417 155.253 117.124 157.44 117.124 160.4V172H113.764V160.76C113.764 156.627 112.057 154.56 108.644 154.56C106.937 154.56 105.511 155.187 104.364 156.44C103.244 157.667 102.684 159.427 102.684 161.72V172H99.3241ZM131.335 172.48C129.441 172.48 127.761 172.053 126.295 171.2C124.828 170.32 123.668 169.107 122.815 167.56C121.988 166.013 121.575 164.187 121.575 162.08C121.575 160 121.988 158.187 122.815 156.64C123.641 155.067 124.788 153.853 126.255 153C127.748 152.12 129.468 151.68 131.415 151.68C133.335 151.68 134.988 152.12 136.375 153C137.788 153.853 138.868 154.987 139.615 156.4C140.361 157.813 140.735 159.333 140.735 160.96C140.735 161.253 140.721 161.547 140.695 161.84C140.695 162.133 140.695 162.467 140.695 162.84H124.895C124.975 164.36 125.321 165.627 125.935 166.64C126.575 167.627 127.361 168.373 128.295 168.88C129.255 169.387 130.268 169.64 131.335 169.64C132.721 169.64 133.881 169.32 134.815 168.68C135.748 168.04 136.428 167.173 136.855 166.08H140.175C139.641 167.92 138.615 169.453 137.095 170.68C135.601 171.88 133.681 172.48 131.335 172.48ZM131.335 154.52C129.735 154.52 128.308 155.013 127.055 156C125.828 156.96 125.121 158.373 124.935 160.24H137.415C137.335 158.453 136.721 157.053 135.575 156.04C134.428 155.027 133.015 154.52 131.335 154.52ZM152.988 172.48C150.615 172.48 148.641 171.88 147.068 170.68C145.495 169.48 144.575 167.853 144.308 165.8H147.748C147.961 166.84 148.508 167.747 149.388 168.52C150.295 169.267 151.508 169.64 153.028 169.64C154.441 169.64 155.481 169.347 156.148 168.76C156.815 168.147 157.148 167.427 157.148 166.6C157.148 165.4 156.708 164.6 155.828 164.2C154.975 163.8 153.761 163.44 152.188 163.12C151.121 162.907 150.055 162.6 148.988 162.2C147.921 161.8 147.028 161.24 146.308 160.52C145.588 159.773 145.228 158.8 145.228 157.6C145.228 155.867 145.868 154.453 147.148 153.36C148.455 152.24 150.215 151.68 152.428 151.68C154.535 151.68 156.255 152.213 157.588 153.28C158.948 154.32 159.735 155.813 159.948 157.76H156.628C156.495 156.747 156.055 155.96 155.308 155.4C154.588 154.813 153.615 154.52 152.388 154.52C151.188 154.52 150.255 154.773 149.588 155.28C148.948 155.787 148.628 156.453 148.628 157.28C148.628 158.08 149.041 158.707 149.868 159.16C150.721 159.613 151.868 160 153.308 160.32C154.535 160.587 155.695 160.92 156.788 161.32C157.908 161.693 158.815 162.267 159.508 163.04C160.228 163.787 160.588 164.88 160.588 166.32C160.615 168.107 159.935 169.587 158.548 170.76C157.188 171.907 155.335 172.48 152.988 172.48ZM173.188 172.48C170.815 172.48 168.841 171.88 167.268 170.68C165.695 169.48 164.775 167.853 164.508 165.8H167.948C168.161 166.84 168.708 167.747 169.588 168.52C170.495 169.267 171.708 169.64 173.228 169.64C174.641 169.64 175.681 169.347 176.348 168.76C177.015 168.147 177.348 167.427 177.348 166.6C177.348 165.4 176.908 164.6 176.028 164.2C175.175 163.8 173.961 163.44 172.388 163.12C171.321 162.907 170.255 162.6 169.188 162.2C168.121 161.8 167.228 161.24 166.508 160.52C165.788 159.773 165.428 158.8 165.428 157.6C165.428 155.867 166.068 154.453 167.348 153.36C168.655 152.24 170.415 151.68 172.628 151.68C174.735 151.68 176.455 152.213 177.788 153.28C179.148 154.32 179.935 155.813 180.148 157.76H176.828C176.695 156.747 176.255 155.96 175.508 155.4C174.788 154.813 173.815 154.52 172.588 154.52C171.388 154.52 170.455 154.773 169.788 155.28C169.148 155.787 168.828 156.453 168.828 157.28C168.828 158.08 169.241 158.707 170.068 159.16C170.921 159.613 172.068 160 173.508 160.32C174.735 160.587 175.895 160.92 176.988 161.32C178.108 161.693 179.015 162.267 179.708 163.04C180.428 163.787 180.788 164.88 180.788 166.32C180.815 168.107 180.135 169.587 178.748 170.76C177.388 171.907 175.535 172.48 173.188 172.48ZM69.88 220.48C67.9867 220.48 66.28 220.053 64.76 219.2C63.2667 218.32 62.08 217.107 61.2 215.56C60.3467 213.987 59.92 212.16 59.92 210.08C59.92 208 60.3467 206.187 61.2 204.64C62.08 203.067 63.2667 201.853 64.76 201C66.28 200.12 67.9867 199.68 69.88 199.68C72.2267 199.68 74.2 200.293 75.8 201.52C77.4267 202.747 78.4533 204.387 78.88 206.44H75.44C75.1733 205.213 74.52 204.267 73.48 203.6C72.44 202.907 71.2267 202.56 69.84 202.56C68.72 202.56 67.6667 202.84 66.68 203.4C65.6933 203.96 64.8933 204.8 64.28 205.92C63.6667 207.04 63.36 208.427 63.36 210.08C63.36 211.733 63.6667 213.12 64.28 214.24C64.8933 215.36 65.6933 216.213 66.68 216.8C67.6667 217.36 68.72 217.64 69.84 217.64C71.2267 217.64 72.44 217.307 73.48 216.64C74.52 215.947 75.1733 214.973 75.44 213.72H78.88C78.48 215.72 77.4667 217.347 75.84 218.6C74.2133 219.853 72.2267 220.48 69.88 220.48ZM92.8125 220.48C90.9458 220.48 89.2658 220.053 87.7725 219.2C86.2792 218.347 85.0925 217.147 84.2125 215.6C83.3592 214.027 82.9325 212.187 82.9325 210.08C82.9325 207.973 83.3725 206.147 84.2525 204.6C85.1325 203.027 86.3192 201.813 87.8125 200.96C89.3325 200.107 91.0258 199.68 92.8925 199.68C94.7592 199.68 96.4392 200.107 97.9325 200.96C99.4258 201.813 100.599 203.027 101.453 204.6C102.333 206.147 102.773 207.973 102.773 210.08C102.773 212.187 102.333 214.027 101.453 215.6C100.573 217.147 99.3725 218.347 97.8525 219.2C96.3592 220.053 94.6792 220.48 92.8125 220.48ZM92.8125 217.6C93.9592 217.6 95.0258 217.32 96.0125 216.76C96.9992 216.2 97.7992 215.36 98.4125 214.24C99.0258 213.12 99.3325 211.733 99.3325 210.08C99.3325 208.427 99.0258 207.04 98.4125 205.92C97.8258 204.8 97.0392 203.96 96.0525 203.4C95.0658 202.84 94.0125 202.56 92.8925 202.56C91.7458 202.56 90.6792 202.84 89.6925 203.4C88.7058 203.96 87.9058 204.8 87.2925 205.92C86.6792 207.04 86.3725 208.427 86.3725 210.08C86.3725 211.733 86.6792 213.12 87.2925 214.24C87.9058 215.36 88.6925 216.2 89.6525 216.76C90.6392 217.32 91.6925 217.6 92.8125 217.6ZM114.244 220.48C112.591 220.48 111.218 220.2 110.124 219.64C109.031 219.08 108.218 218.333 107.684 217.4C107.151 216.467 106.884 215.453 106.884 214.36C106.884 212.333 107.658 210.773 109.204 209.68C110.751 208.587 112.858 208.04 115.524 208.04H120.884V207.8C120.884 206.067 120.431 204.76 119.524 203.88C118.618 202.973 117.404 202.52 115.884 202.52C114.578 202.52 113.444 202.853 112.484 203.52C111.551 204.16 110.964 205.107 110.724 206.36H107.284C107.418 204.92 107.898 203.707 108.724 202.72C109.578 201.733 110.631 200.987 111.884 200.48C113.138 199.947 114.471 199.68 115.884 199.68C118.658 199.68 120.738 200.427 122.124 201.92C123.538 203.387 124.244 205.347 124.244 207.8V220H121.244L121.044 216.44C120.484 217.56 119.658 218.52 118.564 219.32C117.498 220.093 116.058 220.48 114.244 220.48ZM114.764 217.64C116.044 217.64 117.138 217.307 118.044 216.64C118.978 215.973 119.684 215.107 120.164 214.04C120.644 212.973 120.884 211.853 120.884 210.68V210.64H115.804C113.831 210.64 112.431 210.987 111.604 211.68C110.804 212.347 110.404 213.187 110.404 214.2C110.404 215.24 110.778 216.08 111.524 216.72C112.298 217.333 113.378 217.64 114.764 217.64ZM138.605 220.48C136.712 220.48 135.005 220.053 133.485 219.2C131.992 218.32 130.805 217.107 129.925 215.56C129.072 213.987 128.645 212.16 128.645 210.08C128.645 208 129.072 206.187 129.925 204.64C130.805 203.067 131.992 201.853 133.485 201C135.005 200.12 136.712 199.68 138.605 199.68C140.952 199.68 142.925 200.293 144.525 201.52C146.152 202.747 147.178 204.387 147.605 206.44H144.165C143.898 205.213 143.245 204.267 142.205 203.6C141.165 202.907 139.952 202.56 138.565 202.56C137.445 202.56 136.392 202.84 135.405 203.4C134.418 203.96 133.618 204.8 133.005 205.92C132.392 207.04 132.085 208.427 132.085 210.08C132.085 211.733 132.392 213.12 133.005 214.24C133.618 215.36 134.418 216.213 135.405 216.8C136.392 217.36 137.445 217.64 138.565 217.64C139.952 217.64 141.165 217.307 142.205 216.64C143.245 215.947 143.898 214.973 144.165 213.72H147.605C147.205 215.72 146.192 217.347 144.565 218.6C142.938 219.853 140.952 220.48 138.605 220.48ZM152.498 220V191.2H155.858V203.56C156.524 202.333 157.471 201.387 158.698 200.72C159.924 200.027 161.258 199.68 162.698 199.68C164.991 199.68 166.831 200.4 168.218 201.84C169.604 203.253 170.298 205.44 170.298 208.4V220H166.978V208.76C166.978 204.627 165.311 202.56 161.978 202.56C160.244 202.56 158.791 203.187 157.618 204.44C156.444 205.667 155.858 207.427 155.858 209.72V220H152.498Z" fill="white"/>
<path d="M182.465 99.135C185.977 99.135 189.175 101.566 192.382 102.785C194.883 103.736 197.193 105.084 199.665 106.091C200.003 106.229 203.27 107.611 203.469 107.434C203.831 107.113 203.228 103.928 203.228 103.491C203.228 101.809 203.228 100.128 203.228 98.4463C203.228 94.3188 202.919 90.2266 202.919 86.119" stroke="white" stroke-width="3" stroke-linecap="round"/>
<path d="M195.172 81.1605C199.642 81.1605 203.591 81.7602 207.878 82.9511C208.774 83.1999 212.156 84.1387 212.527 84.8794" stroke="white" stroke-width="3" stroke-linecap="round"/>
<path d="M214.074 79.611V89.8378" stroke="white" stroke-width="3" stroke-linecap="round"/>
<path d="M194.242 76.202V85.1893" stroke="white" stroke-width="3" stroke-linecap="round"/>
<path d="M155.473 90.9307C154.15 90.9307 152.896 90.7913 151.628 90.6937C149.811 90.554 150.429 88.3183 150.508 86.9011C150.598 85.2802 151.057 83.5277 151.338 81.9234C151.637 80.2157 151.824 78.5346 152.26 76.8534C152.889 74.426 152.961 71.8224 153.576 69.3605" stroke="white" stroke-width="3" stroke-linecap="round"/>
<path d="M147.652 66.9901C148.998 66.9901 150.436 67.0487 151.629 67.7539C152.448 68.238 153.199 68.8526 154.105 69.1761C155.139 69.5455 156.149 69.7634 157.134 70.2559C157.925 70.6518 158.863 70.6155 159.504 71.2568" stroke="white" stroke-width="3" stroke-linecap="round"/>
<path d="M158.793 75.0493C158.793 72.4167 159.978 70.0647 159.978 67.4642" stroke="white" stroke-width="3" stroke-linecap="round"/>
<path d="M146.939 62.4865C146.939 64.1281 146.939 65.7698 146.939 67.4115C146.939 68.3874 147.054 69.448 146.807 70.4008C146.685 70.8704 146.465 71.2395 146.465 71.7308" stroke="white" stroke-width="3" stroke-linecap="round"/>
</svg>
