<svg width="300" height="300" viewBox="0 0 300 300" fill="none" xmlns="http://www.w3.org/2000/svg">
<circle cx="150" cy="150" r="148.5" fill="#CBB3F2" stroke="black" stroke-width="3"/>
<circle cx="101.11" cy="205.11" r="21.6098" fill="black" stroke="black"/>
<ellipse cx="88.2632" cy="197.64" rx="2.68902" ry="5.07927" fill="white"/>
<ellipse cx="96.6265" cy="197.64" rx="2.68902" ry="5.07927" fill="white"/>
<path d="M94.8336 221.244V229.311C94.8336 230.796 93.6296 232 92.1445 232V232" stroke="black" stroke-width="3" stroke-linecap="round"/>
<path d="M111.568 221.244V229.311C111.568 230.796 110.364 232 108.879 232V232" stroke="black" stroke-width="3" stroke-linecap="round"/>
<path d="M51.76 105V85.16H54.8L55.04 88.04C55.68 86.9733 56.5333 86.1467 57.6 85.56C58.6667 84.9733 59.8667 84.68 61.2 84.68C62.7733 84.68 64.12 85 65.24 85.64C66.3867 86.28 67.2667 87.2533 67.88 88.56C68.5733 87.36 69.52 86.4133 70.72 85.72C71.9467 85.0267 73.2667 84.68 74.68 84.68C77.0533 84.68 78.9467 85.4 80.36 86.84C81.7733 88.2533 82.48 90.44 82.48 93.4V105H79.16L79.16 93.76C79.16 91.7067 78.7467 90.16 77.92 89.12C77.0933 88.08 75.9067 87.56 74.36 87.56C72.76 87.56 71.4267 88.1867 70.36 89.44C69.32 90.6667 68.8 92.4267 68.8 94.72L68.8 105H65.44L65.44 93.76C65.44 91.7067 65.0267 90.16 64.2 89.12C63.3733 88.08 62.1867 87.56 60.64 87.56C59.0667 87.56 57.7467 88.1867 56.68 89.44C55.64 90.6667 55.12 92.4267 55.12 94.72V105H51.76ZM89.3153 113.8L94.2353 103.08H93.0753L85.1953 85.16H88.8353L95.3953 100.6L102.355 85.16H105.835L92.8353 113.8H89.3153ZM51.76 153V133.16H54.8L55 136.72C55.64 135.467 56.56 134.48 57.76 133.76C58.96 133.04 60.32 132.68 61.84 132.68C64.1867 132.68 66.0533 133.4 67.44 134.84C68.8533 136.253 69.56 138.44 69.56 141.4V153H66.2V141.76C66.2 137.627 64.4933 135.56 61.08 135.56C59.3733 135.56 57.9467 136.187 56.8 137.44C55.68 138.667 55.12 140.427 55.12 142.72V153H51.76ZM82.0906 153.48C79.744 153.48 77.8773 152.773 76.4906 151.36C75.104 149.92 74.4106 147.72 74.4106 144.76V133.16H77.7706V144.4C77.7706 148.533 79.464 150.6 82.8506 150.6C84.584 150.6 86.0106 149.987 87.1306 148.76C88.2773 147.507 88.8506 145.733 88.8506 143.44V133.16H92.2106V153H89.1706L88.9306 149.44C88.3173 150.693 87.3973 151.68 86.1706 152.4C84.9706 153.12 83.6106 153.48 82.0906 153.48ZM105.781 153C103.968 153 102.541 152.56 101.501 151.68C100.461 150.8 99.9413 149.213 99.9413 146.92V136H96.5013V133.16H99.9413L100.381 128.4H103.301V133.16H109.141V136H103.301V146.92C103.301 148.173 103.555 149.027 104.061 149.48C104.568 149.907 105.461 150.12 106.741 150.12H108.821V153H105.781ZM113.61 153V133.16H116.65L116.93 136.96C117.543 135.653 118.477 134.613 119.73 133.84C120.983 133.067 122.53 132.68 124.37 132.68V136.2H123.45C122.277 136.2 121.197 136.413 120.21 136.84C119.223 137.24 118.437 137.933 117.85 138.92C117.263 139.907 116.97 141.267 116.97 143V153H113.61ZM130.381 128.76C129.715 128.76 129.155 128.547 128.701 128.12C128.275 127.667 128.061 127.107 128.061 126.44C128.061 125.8 128.275 125.267 128.701 124.84C129.155 124.413 129.715 124.2 130.381 124.2C131.021 124.2 131.568 124.413 132.021 124.84C132.475 125.267 132.701 125.8 132.701 126.44C132.701 127.107 132.475 127.667 132.021 128.12C131.568 128.547 131.021 128.76 130.381 128.76ZM128.701 153V133.16H132.061V153H128.701ZM145.952 153C144.138 153 142.712 152.56 141.672 151.68C140.632 150.8 140.112 149.213 140.112 146.92V136H136.672V133.16H140.112L140.552 128.4H143.472V133.16H149.312V136H143.472V146.92C143.472 148.173 143.725 149.027 144.232 149.48C144.738 149.907 145.632 150.12 146.912 150.12H148.992V153H145.952ZM155.82 128.76C155.154 128.76 154.594 128.547 154.14 128.12C153.714 127.667 153.5 127.107 153.5 126.44C153.5 125.8 153.714 125.267 154.14 124.84C154.594 124.413 155.154 124.2 155.82 124.2C156.46 124.2 157.007 124.413 157.46 124.84C157.914 125.267 158.14 125.8 158.14 126.44C158.14 127.107 157.914 127.667 157.46 128.12C157.007 128.547 156.46 128.76 155.82 128.76ZM154.14 153V133.16H157.5V153H154.14ZM172.591 153.48C170.724 153.48 169.044 153.053 167.551 152.2C166.057 151.347 164.871 150.147 163.991 148.6C163.137 147.027 162.711 145.187 162.711 143.08C162.711 140.973 163.151 139.147 164.031 137.6C164.911 136.027 166.097 134.813 167.591 133.96C169.111 133.107 170.804 132.68 172.671 132.68C174.537 132.68 176.217 133.107 177.711 133.96C179.204 134.813 180.377 136.027 181.231 137.6C182.111 139.147 182.551 140.973 182.551 143.08C182.551 145.187 182.111 147.027 181.231 148.6C180.351 150.147 179.151 151.347 177.631 152.2C176.137 153.053 174.457 153.48 172.591 153.48ZM172.591 150.6C173.737 150.6 174.804 150.32 175.791 149.76C176.777 149.2 177.577 148.36 178.191 147.24C178.804 146.12 179.111 144.733 179.111 143.08C179.111 141.427 178.804 140.04 178.191 138.92C177.604 137.8 176.817 136.96 175.831 136.4C174.844 135.84 173.791 135.56 172.671 135.56C171.524 135.56 170.457 135.84 169.471 136.4C168.484 136.96 167.684 137.8 167.071 138.92C166.457 140.04 166.151 141.427 166.151 143.08C166.151 144.733 166.457 146.12 167.071 147.24C167.684 148.36 168.471 149.2 169.431 149.76C170.417 150.32 171.471 150.6 172.591 150.6ZM187.423 153L187.423 133.16H190.463L190.663 136.72C191.303 135.467 192.223 134.48 193.423 133.76C194.623 133.04 195.983 132.68 197.503 132.68C199.849 132.68 201.716 133.4 203.103 134.84C204.516 136.253 205.223 138.44 205.223 141.4V153H201.863V141.76C201.863 137.627 200.156 135.56 196.743 135.56C195.036 135.56 193.609 136.187 192.463 137.44C191.343 138.667 190.783 140.427 190.783 142.72V153H187.423ZM212.553 128.76C211.886 128.76 211.326 128.547 210.873 128.12C210.446 127.667 210.233 127.107 210.233 126.44C210.233 125.8 210.446 125.267 210.873 124.84C211.326 124.413 211.886 124.2 212.553 124.2C213.193 124.2 213.74 124.413 214.193 124.84C214.646 125.267 214.873 125.8 214.873 126.44C214.873 127.107 214.646 127.667 214.193 128.12C213.74 128.547 213.193 128.76 212.553 128.76ZM210.873 153L210.873 133.16H214.233L214.233 153H210.873ZM227.883 153.48C225.51 153.48 223.537 152.88 221.963 151.68C220.39 150.48 219.47 148.853 219.203 146.8H222.643C222.857 147.84 223.403 148.747 224.283 149.52C225.19 150.267 226.403 150.64 227.923 150.64C229.337 150.64 230.377 150.347 231.043 149.76C231.71 149.147 232.043 148.427 232.043 147.6C232.043 146.4 231.603 145.6 230.723 145.2C229.87 144.8 228.657 144.44 227.083 144.12C226.017 143.907 224.95 143.6 223.883 143.2C222.817 142.8 221.923 142.24 221.203 141.52C220.483 140.773 220.123 139.8 220.123 138.6C220.123 136.867 220.763 135.453 222.043 134.36C223.35 133.24 225.11 132.68 227.323 132.68C229.43 132.68 231.15 133.213 232.483 134.28C233.843 135.32 234.63 136.813 234.843 138.76H231.523C231.39 137.747 230.95 136.96 230.203 136.4C229.483 135.813 228.51 135.52 227.283 135.52C226.083 135.52 225.15 135.773 224.483 136.28C223.843 136.787 223.523 137.453 223.523 138.28C223.523 139.08 223.937 139.707 224.763 140.16C225.617 140.613 226.763 141 228.203 141.32C229.43 141.587 230.59 141.92 231.683 142.32C232.803 142.693 233.71 143.267 234.403 144.04C235.123 144.787 235.483 145.88 235.483 147.32C235.51 149.107 234.83 150.587 233.443 151.76C232.083 152.907 230.23 153.48 227.883 153.48ZM247.425 153C245.612 153 244.185 152.56 243.145 151.68C242.105 150.8 241.585 149.213 241.585 146.92L241.585 136H238.145V133.16H241.585L242.025 128.4H244.945V133.16H250.785V136H244.945L244.945 146.92C244.945 148.173 245.198 149.027 245.705 149.48C246.212 149.907 247.105 150.12 248.385 150.12H250.465V153H247.425Z" fill="black"/>
</svg>
