<svg width="300" height="300" viewBox="0 0 300 300" fill="none" xmlns="http://www.w3.org/2000/svg">
<circle cx="150" cy="150" r="148.5" fill="#FFC022" stroke="black" stroke-width="3"/>
<circle cx="172.11" cy="61.1098" r="21.6098" fill="black" stroke="black"/>
<ellipse cx="159.263" cy="53.6402" rx="2.68902" ry="5.07927" fill="white"/>
<ellipse cx="167.627" cy="53.6402" rx="2.68902" ry="5.07927" fill="white"/>
<path d="M165.834 77.2439V85.311C165.834 86.7961 164.63 88 163.145 88V88" stroke="black" stroke-width="3" stroke-linecap="round"/>
<path d="M182.568 77.2439V85.311C182.568 86.7961 181.364 88 179.879 88V88" stroke="black" stroke-width="3" stroke-linecap="round"/>
<path d="M75.36 88.48C73.7067 88.48 72.3333 88.2 71.24 87.64C70.1467 87.08 69.3333 86.3333 68.8 85.4C68.2667 84.4667 68 83.4533 68 82.36C68 80.3333 68.7733 78.7733 70.32 77.68C71.8667 76.5867 73.9733 76.04 76.64 76.04H82V75.8C82 74.0667 81.5467 72.76 80.64 71.88C79.7333 70.9733 78.52 70.52 77 70.52C75.6933 70.52 74.56 70.8533 73.6 71.52C72.6667 72.16 72.08 73.1067 71.84 74.36H68.4C68.5333 72.92 69.0133 71.7067 69.84 70.72C70.6933 69.7333 71.7467 68.9867 73 68.48C74.2533 67.9467 75.5867 67.68 77 67.68C79.7733 67.68 81.8533 68.4267 83.24 69.92C84.6533 71.3867 85.36 73.3467 85.36 75.8V88H82.36L82.16 84.44C81.6 85.56 80.7733 86.52 79.68 87.32C78.6133 88.0933 77.1733 88.48 75.36 88.48ZM75.88 85.64C77.16 85.64 78.2533 85.3067 79.16 84.64C80.0933 83.9733 80.8 83.1067 81.28 82.04C81.76 80.9733 82 79.8533 82 78.68V78.64H76.92C74.9467 78.64 73.5467 78.9867 72.72 79.68C71.92 80.3467 71.52 81.1867 71.52 82.2C71.52 83.24 71.8933 84.08 72.64 84.72C73.4133 85.3333 74.4933 85.64 75.88 85.64ZM90.6006 88V59.2L93.9606 59.2V88H90.6006ZM99.6678 88V59.2H103.028V88H99.6678ZM68.96 136V108H72.32V120.36H86.84L86.84 108H90.2L90.2 136H86.84V123.12H72.32V136H68.96ZM96.3084 136L96.3084 108H113.628V110.76H99.6684V120.52L112.428 120.52L112.428 123.24L99.6684 123.24V133.24H113.628V136H96.3084ZM117.327 136L127.647 108H131.207L141.487 136H137.927L135.367 128.8H123.447L120.847 136H117.327ZM124.447 126.08H134.367L129.407 112.24L124.447 126.08ZM145.849 136V108H149.209V133.32H162.249V136H145.849ZM169.172 136V110.76H160.812V108L180.892 108V110.76L172.532 110.76V136H169.172ZM185.194 136V108H188.554V120.36L203.074 120.36V108H206.434V136H203.074V123.12L188.554 123.12V136H185.194ZM68.96 184V156H72.88L82.96 175.52L92.96 156H96.92L96.92 184H93.56L93.56 162L84.2 180H81.68L72.32 162.04V184H68.96ZM101.267 184L111.587 156H115.147L125.427 184H121.867L119.307 176.8H107.387L104.787 184H101.267ZM108.387 174.08H118.307L113.347 160.24L108.387 174.08ZM129.79 184L129.79 156H133.15L148.07 178.44V156H151.43V184H148.07L133.15 161.56V184H129.79Z" fill="black"/>
</svg>
