<svg width="300" height="300" viewBox="0 0 300 300" fill="none" xmlns="http://www.w3.org/2000/svg">
<circle cx="150" cy="150" r="148.5" fill="#EE7D79" stroke="black" stroke-width="3"/>
<circle cx="220.11" cy="84.1098" r="21.6098" fill="black" stroke="black"/>
<ellipse cx="207.263" cy="76.6402" rx="2.68902" ry="5.07927" fill="white"/>
<ellipse cx="215.627" cy="76.6402" rx="2.68902" ry="5.07927" fill="white"/>
<path d="M213.834 100.244V108.311C213.834 109.796 212.63 111 211.145 111V111" stroke="black" stroke-width="3" stroke-linecap="round"/>
<path d="M230.568 100.244V108.311C230.568 109.796 229.364 111 227.879 111V111" stroke="black" stroke-width="3" stroke-linecap="round"/>
<path d="M65.76 123V103.16H68.8L69.04 106.04C69.68 104.973 70.5333 104.147 71.6 103.56C72.6667 102.973 73.8667 102.68 75.2 102.68C76.7733 102.68 78.12 103 79.24 103.64C80.3867 104.28 81.2667 105.253 81.88 106.56C82.5733 105.36 83.52 104.413 84.72 103.72C85.9467 103.027 87.2667 102.68 88.68 102.68C91.0533 102.68 92.9467 103.4 94.36 104.84C95.7733 106.253 96.48 108.44 96.48 111.4V123H93.16V111.76C93.16 109.707 92.7467 108.16 91.92 107.12C91.0933 106.08 89.9067 105.56 88.36 105.56C86.76 105.56 85.4267 106.187 84.36 107.44C83.32 108.667 82.8 110.427 82.8 112.72V123H79.44V111.76C79.44 109.707 79.0267 108.16 78.2 107.12C77.3733 106.08 76.1867 105.56 74.64 105.56C73.0667 105.56 71.7467 106.187 70.68 107.44C69.64 108.667 69.12 110.427 69.12 112.72V123H65.76ZM103.315 131.8L108.235 121.08H107.075L99.1953 103.16H102.835L109.395 118.6L116.355 103.16H119.835L106.835 131.8H103.315ZM73.36 171.48C70.9867 171.48 69.0133 170.88 67.44 169.68C65.8667 168.48 64.9467 166.853 64.68 164.8H68.12C68.3333 165.84 68.88 166.747 69.76 167.52C70.6667 168.267 71.88 168.64 73.4 168.64C74.8133 168.64 75.8533 168.347 76.52 167.76C77.1867 167.147 77.52 166.427 77.52 165.6C77.52 164.4 77.08 163.6 76.2 163.2C75.3467 162.8 74.1333 162.44 72.56 162.12C71.4933 161.907 70.4267 161.6 69.36 161.2C68.2933 160.8 67.4 160.24 66.68 159.52C65.96 158.773 65.6 157.8 65.6 156.6C65.6 154.867 66.24 153.453 67.52 152.36C68.8267 151.24 70.5867 150.68 72.8 150.68C74.9067 150.68 76.6267 151.213 77.96 152.28C79.32 153.32 80.1067 154.813 80.32 156.76H77C76.8667 155.747 76.4267 154.96 75.68 154.4C74.96 153.813 73.9867 153.52 72.76 153.52C71.56 153.52 70.6267 153.773 69.96 154.28C69.32 154.787 69 155.453 69 156.28C69 157.08 69.4133 157.707 70.24 158.16C71.0933 158.613 72.24 159 73.68 159.32C74.9067 159.587 76.0667 159.92 77.16 160.32C78.28 160.693 79.1867 161.267 79.88 162.04C80.6 162.787 80.96 163.88 80.96 165.32C80.9867 167.107 80.3067 168.587 78.92 169.76C77.56 170.907 75.7067 171.48 73.36 171.48ZM92.9016 171C91.0882 171 89.6616 170.56 88.6216 169.68C87.5816 168.8 87.0616 167.213 87.0616 164.92V154H83.6216V151.16H87.0616L87.5016 146.4H90.4216V151.16H96.2616V154H90.4216V164.92C90.4216 166.173 90.6749 167.027 91.1816 167.48C91.6882 167.907 92.5816 168.12 93.8616 168.12H95.9416V171H92.9016ZM107.33 171.48C105.677 171.48 104.304 171.2 103.21 170.64C102.117 170.08 101.304 169.333 100.77 168.4C100.237 167.467 99.9703 166.453 99.9703 165.36C99.9703 163.333 100.744 161.773 102.29 160.68C103.837 159.587 105.944 159.04 108.61 159.04H113.97V158.8C113.97 157.067 113.517 155.76 112.61 154.88C111.704 153.973 110.49 153.52 108.97 153.52C107.664 153.52 106.53 153.853 105.57 154.52C104.637 155.16 104.05 156.107 103.81 157.36H100.37C100.504 155.92 100.984 154.707 101.81 153.72C102.664 152.733 103.717 151.987 104.97 151.48C106.224 150.947 107.557 150.68 108.97 150.68C111.744 150.68 113.824 151.427 115.21 152.92C116.624 154.387 117.33 156.347 117.33 158.8V171H114.33L114.13 167.44C113.57 168.56 112.744 169.52 111.65 170.32C110.584 171.093 109.144 171.48 107.33 171.48ZM107.85 168.64C109.13 168.64 110.224 168.307 111.13 167.64C112.064 166.973 112.77 166.107 113.25 165.04C113.73 163.973 113.97 162.853 113.97 161.68V161.64H108.89C106.917 161.64 105.517 161.987 104.69 162.68C103.89 163.347 103.49 164.187 103.49 165.2C103.49 166.24 103.864 167.08 104.61 167.72C105.384 168.333 106.464 168.64 107.85 168.64ZM122.571 171L122.571 151.16H125.611L125.891 154.96C126.504 153.653 127.438 152.613 128.691 151.84C129.944 151.067 131.491 150.68 133.331 150.68V154.2H132.411C131.238 154.2 130.158 154.413 129.171 154.84C128.184 155.24 127.398 155.933 126.811 156.92C126.224 157.907 125.931 159.267 125.931 161V171H122.571ZM145.142 171C143.329 171 141.902 170.56 140.862 169.68C139.822 168.8 139.302 167.213 139.302 164.92V154H135.862V151.16H139.302L139.742 146.4H142.662V151.16H148.502V154H142.662V164.92C142.662 166.173 142.916 167.027 143.422 167.48C143.929 167.907 144.822 168.12 146.102 168.12H148.182V171H145.142ZM160.211 171.48C157.864 171.48 155.998 170.773 154.611 169.36C153.224 167.92 152.531 165.72 152.531 162.76V151.16H155.891V162.4C155.891 166.533 157.584 168.6 160.971 168.6C162.704 168.6 164.131 167.987 165.251 166.76C166.398 165.507 166.971 163.733 166.971 161.44V151.16H170.331V171H167.291L167.051 167.44C166.438 168.693 165.518 169.68 164.291 170.4C163.091 171.12 161.731 171.48 160.211 171.48ZM176.062 179.8V151.16H179.102L179.422 154.44C180.062 153.48 180.968 152.613 182.142 151.84C183.342 151.067 184.862 150.68 186.702 150.68C188.675 150.68 190.395 151.133 191.862 152.04C193.328 152.947 194.462 154.187 195.262 155.76C196.088 157.333 196.502 159.12 196.502 161.12C196.502 163.12 196.088 164.907 195.262 166.48C194.462 168.027 193.315 169.253 191.822 170.16C190.355 171.04 188.635 171.48 186.662 171.48C185.035 171.48 183.582 171.147 182.302 170.48C181.048 169.813 180.088 168.88 179.422 167.68V179.8H176.062ZM186.302 168.56C187.635 168.56 188.808 168.253 189.822 167.64C190.835 167 191.635 166.12 192.222 165C192.808 163.88 193.102 162.573 193.102 161.08C193.102 159.587 192.808 158.28 192.222 157.16C191.635 156.04 190.835 155.173 189.822 154.56C188.808 153.92 187.635 153.6 186.302 153.6C184.968 153.6 183.795 153.92 182.782 154.56C181.768 155.173 180.968 156.04 180.382 157.16C179.795 158.28 179.502 159.587 179.502 161.08C179.502 162.573 179.795 163.88 180.382 165C180.968 166.12 181.768 167 182.782 167.64C183.795 168.253 184.968 168.56 186.302 168.56ZM65.76 219V199.16H68.8L69.04 202.04C69.68 200.973 70.5333 200.147 71.6 199.56C72.6667 198.973 73.8667 198.68 75.2 198.68C76.7733 198.68 78.12 199 79.24 199.64C80.3867 200.28 81.2667 201.253 81.88 202.56C82.5733 201.36 83.52 200.413 84.72 199.72C85.9467 199.027 87.2667 198.68 88.68 198.68C91.0533 198.68 92.9467 199.4 94.36 200.84C95.7733 202.253 96.48 204.44 96.48 207.4V219H93.16L93.16 207.76C93.16 205.707 92.7467 204.16 91.92 203.12C91.0933 202.08 89.9067 201.56 88.36 201.56C86.76 201.56 85.4267 202.187 84.36 203.44C83.32 204.667 82.8 206.427 82.8 208.72L82.8 219H79.44L79.44 207.76C79.44 205.707 79.0267 204.16 78.2 203.12C77.3733 202.08 76.1867 201.56 74.64 201.56C73.0667 201.56 71.7467 202.187 70.68 203.44C69.64 204.667 69.12 206.427 69.12 208.72V219H65.76ZM110.661 219.48C108.768 219.48 107.088 219.053 105.621 218.2C104.155 217.32 102.995 216.107 102.141 214.56C101.315 213.013 100.901 211.187 100.901 209.08C100.901 207 101.315 205.187 102.141 203.64C102.968 202.067 104.115 200.853 105.581 200C107.075 199.12 108.795 198.68 110.741 198.68C112.661 198.68 114.315 199.12 115.701 200C117.115 200.853 118.195 201.987 118.941 203.4C119.688 204.813 120.061 206.333 120.061 207.96C120.061 208.253 120.048 208.547 120.021 208.84C120.021 209.133 120.021 209.467 120.021 209.84H104.221C104.301 211.36 104.648 212.627 105.261 213.64C105.901 214.627 106.688 215.373 107.621 215.88C108.581 216.387 109.595 216.64 110.661 216.64C112.048 216.64 113.208 216.32 114.141 215.68C115.075 215.04 115.755 214.173 116.181 213.08H119.501C118.968 214.92 117.941 216.453 116.421 217.68C114.928 218.88 113.008 219.48 110.661 219.48ZM110.661 201.52C109.061 201.52 107.635 202.013 106.381 203C105.155 203.96 104.448 205.373 104.261 207.24H116.741C116.661 205.453 116.048 204.053 114.901 203.04C113.755 202.027 112.341 201.52 110.661 201.52ZM124.715 219L124.715 199.16H127.755L127.955 202.72C128.595 201.467 129.515 200.48 130.715 199.76C131.915 199.04 133.275 198.68 134.795 198.68C137.141 198.68 139.008 199.4 140.395 200.84C141.808 202.253 142.515 204.44 142.515 207.4V219H139.155V207.76C139.155 203.627 137.448 201.56 134.035 201.56C132.328 201.56 130.901 202.187 129.755 203.44C128.635 204.667 128.075 206.427 128.075 208.72V219H124.715ZM155.645 219C153.832 219 152.405 218.56 151.365 217.68C150.325 216.8 149.805 215.213 149.805 212.92V202H146.365V199.16H149.805L150.245 194.4H153.165V199.16H159.005V202H153.165V212.92C153.165 214.173 153.419 215.027 153.925 215.48C154.432 215.907 155.325 216.12 156.605 216.12H158.685V219H155.645ZM171.967 219.48C170.101 219.48 168.421 219.053 166.927 218.2C165.434 217.347 164.247 216.147 163.367 214.6C162.514 213.027 162.087 211.187 162.087 209.08C162.087 206.973 162.527 205.147 163.407 203.6C164.287 202.027 165.474 200.813 166.967 199.96C168.487 199.107 170.181 198.68 172.047 198.68C173.914 198.68 175.594 199.107 177.087 199.96C178.581 200.813 179.754 202.027 180.607 203.6C181.487 205.147 181.927 206.973 181.927 209.08C181.927 211.187 181.487 213.027 180.607 214.6C179.727 216.147 178.527 217.347 177.007 218.2C175.514 219.053 173.834 219.48 171.967 219.48ZM171.967 216.6C173.114 216.6 174.181 216.32 175.167 215.76C176.154 215.2 176.954 214.36 177.567 213.24C178.181 212.12 178.487 210.733 178.487 209.08C178.487 207.427 178.181 206.04 177.567 204.92C176.981 203.8 176.194 202.96 175.207 202.4C174.221 201.84 173.167 201.56 172.047 201.56C170.901 201.56 169.834 201.84 168.847 202.4C167.861 202.96 167.061 203.8 166.447 204.92C165.834 206.04 165.527 207.427 165.527 209.08C165.527 210.733 165.834 212.12 166.447 213.24C167.061 214.36 167.847 215.2 168.807 215.76C169.794 216.32 170.847 216.6 171.967 216.6ZM186.799 219V199.16H189.839L190.119 202.96C190.732 201.653 191.666 200.613 192.919 199.84C194.172 199.067 195.719 198.68 197.559 198.68V202.2H196.639C195.466 202.2 194.386 202.413 193.399 202.84C192.412 203.24 191.626 203.933 191.039 204.92C190.452 205.907 190.159 207.267 190.159 209V219H186.799Z" fill="black"/>
</svg>
