<svg width="300" height="300" viewBox="0 0 300 300" fill="none" xmlns="http://www.w3.org/2000/svg">
<circle cx="150" cy="150" r="148.5" fill="#F091F9" stroke="black" stroke-width="3"/>
<circle cx="175.11" cy="227.11" r="21.6098" fill="black" stroke="black"/>
<ellipse cx="162.263" cy="219.64" rx="2.68902" ry="5.07927" fill="white"/>
<ellipse cx="170.627" cy="219.64" rx="2.68902" ry="5.07927" fill="white"/>
<path d="M168.834 243.244V251.311C168.834 252.796 167.63 254 166.145 254V254" stroke="black" stroke-width="3" stroke-linecap="round"/>
<path d="M185.568 243.244V251.311C185.568 252.796 184.364 254 182.879 254V254" stroke="black" stroke-width="3" stroke-linecap="round"/>
<path d="M52.84 105V88H49.84V85.16H52.84V81.72C52.84 79.8 53.32 78.4 54.28 77.52C55.24 76.64 56.64 76.2 58.48 76.2H60.48V79.08H59C57.9867 79.08 57.2667 79.2933 56.84 79.72C56.4133 80.12 56.2 80.8133 56.2 81.8V85.16H61.08V88H56.2V105H52.84ZM71.0991 105.48C69.4457 105.48 68.0724 105.2 66.9791 104.64C65.8857 104.08 65.0724 103.333 64.5391 102.4C64.0057 101.467 63.7391 100.453 63.7391 99.36C63.7391 97.3333 64.5124 95.7733 66.0591 94.68C67.6057 93.5867 69.7124 93.04 72.3791 93.04H77.7391V92.8C77.7391 91.0667 77.2857 89.76 76.3791 88.88C75.4724 87.9733 74.2591 87.52 72.7391 87.52C71.4324 87.52 70.2991 87.8533 69.3391 88.52C68.4057 89.16 67.8191 90.1067 67.5791 91.36H64.1391C64.2724 89.92 64.7524 88.7067 65.5791 87.72C66.4324 86.7333 67.4857 85.9867 68.7391 85.48C69.9924 84.9467 71.3257 84.68 72.7391 84.68C75.5124 84.68 77.5924 85.4267 78.9791 86.92C80.3924 88.3867 81.0991 90.3467 81.0991 92.8V105H78.0991L77.8991 101.44C77.3391 102.56 76.5124 103.52 75.4191 104.32C74.3524 105.093 72.9124 105.48 71.0991 105.48ZM71.6191 102.64C72.8991 102.64 73.9924 102.307 74.8991 101.64C75.8324 100.973 76.5391 100.107 77.0191 99.04C77.4991 97.9733 77.7391 96.8533 77.7391 95.68V95.64H72.6591C70.6857 95.64 69.2857 95.9867 68.4591 96.68C67.6591 97.3467 67.2591 98.1867 67.2591 99.2C67.2591 100.24 67.6324 101.08 68.3791 101.72C69.1524 102.333 70.2324 102.64 71.6191 102.64ZM93.9397 105.48C91.5664 105.48 89.593 104.88 88.0197 103.68C86.4464 102.48 85.5264 100.853 85.2597 98.8H88.6997C88.913 99.84 89.4597 100.747 90.3397 101.52C91.2464 102.267 92.4597 102.64 93.9797 102.64C95.393 102.64 96.433 102.347 97.0997 101.76C97.7664 101.147 98.0997 100.427 98.0997 99.6C98.0997 98.4 97.6597 97.6 96.7797 97.2C95.9264 96.8 94.713 96.44 93.1397 96.12C92.073 95.9067 91.0064 95.6 89.9397 95.2C88.873 94.8 87.9797 94.24 87.2597 93.52C86.5397 92.7733 86.1797 91.8 86.1797 90.6C86.1797 88.8667 86.8197 87.4533 88.0997 86.36C89.4064 85.24 91.1664 84.68 93.3797 84.68C95.4864 84.68 97.2064 85.2133 98.5397 86.28C99.8997 87.32 100.686 88.8133 100.9 90.76H97.5797C97.4464 89.7467 97.0064 88.96 96.2597 88.4C95.5397 87.8133 94.5664 87.52 93.3397 87.52C92.1397 87.52 91.2064 87.7733 90.5397 88.28C89.8997 88.7867 89.5797 89.4533 89.5797 90.28C89.5797 91.08 89.993 91.7067 90.8197 92.16C91.673 92.6133 92.8197 93 94.2597 93.32C95.4864 93.5867 96.6464 93.92 97.7397 94.32C98.8597 94.6933 99.7664 95.2667 100.46 96.04C101.18 96.7867 101.54 97.88 101.54 99.32C101.566 101.107 100.886 102.587 99.4997 103.76C98.1397 104.907 96.2864 105.48 93.9397 105.48ZM106.54 105V76.2H109.9V88.56C110.566 87.3333 111.513 86.3867 112.74 85.72C113.966 85.0267 115.3 84.68 116.74 84.68C119.033 84.68 120.873 85.4 122.26 86.84C123.646 88.2533 124.34 90.44 124.34 93.4V105H121.02V93.76C121.02 89.6267 119.353 87.56 116.02 87.56C114.286 87.56 112.833 88.1867 111.66 89.44C110.486 90.6667 109.9 92.4267 109.9 94.72V105H106.54ZM131.67 80.76C131.004 80.76 130.444 80.5467 129.99 80.12C129.564 79.6667 129.35 79.1067 129.35 78.44C129.35 77.8 129.564 77.2667 129.99 76.84C130.444 76.4133 131.004 76.2 131.67 76.2C132.31 76.2 132.857 76.4133 133.31 76.84C133.764 77.2667 133.99 77.8 133.99 78.44C133.99 79.1067 133.764 79.6667 133.31 80.12C132.857 80.5467 132.31 80.76 131.67 80.76ZM129.99 105V85.16H133.35V105H129.99ZM148.441 105.48C146.574 105.48 144.894 105.053 143.401 104.2C141.907 103.347 140.721 102.147 139.841 100.6C138.987 99.0267 138.561 97.1867 138.561 95.08C138.561 92.9733 139.001 91.1467 139.881 89.6C140.761 88.0267 141.947 86.8133 143.441 85.96C144.961 85.1067 146.654 84.68 148.521 84.68C150.387 84.68 152.067 85.1067 153.561 85.96C155.054 86.8133 156.227 88.0267 157.081 89.6C157.961 91.1467 158.401 92.9733 158.401 95.08C158.401 97.1867 157.961 99.0267 157.081 100.6C156.201 102.147 155.001 103.347 153.481 104.2C151.987 105.053 150.307 105.48 148.441 105.48ZM148.441 102.6C149.587 102.6 150.654 102.32 151.641 101.76C152.627 101.2 153.427 100.36 154.041 99.24C154.654 98.12 154.961 96.7333 154.961 95.08C154.961 93.4267 154.654 92.04 154.041 90.92C153.454 89.8 152.667 88.96 151.681 88.4C150.694 87.84 149.641 87.56 148.521 87.56C147.374 87.56 146.307 87.84 145.321 88.4C144.334 88.96 143.534 89.8 142.921 90.92C142.307 92.04 142.001 93.4267 142.001 95.08C142.001 96.7333 142.307 98.12 142.921 99.24C143.534 100.36 144.321 101.2 145.281 101.76C146.267 102.32 147.321 102.6 148.441 102.6ZM163.272 105V85.16H166.312L166.512 88.72C167.152 87.4667 168.072 86.48 169.272 85.76C170.472 85.04 171.832 84.68 173.352 84.68C175.699 84.68 177.566 85.4 178.952 86.84C180.366 88.2533 181.072 90.44 181.072 93.4V105H177.712V93.76C177.712 89.6267 176.006 87.56 172.592 87.56C170.886 87.56 169.459 88.1867 168.312 89.44C167.192 90.6667 166.632 92.4267 166.632 94.72V105H163.272ZM62.36 153.48C60.7333 153.48 59.28 153.147 58 152.48C56.7467 151.813 55.7867 150.88 55.12 149.68L54.8 153H51.76V124.2H55.12V136.44C55.76 135.48 56.6667 134.613 57.84 133.84C59.04 133.067 60.56 132.68 62.4 132.68C64.3733 132.68 66.0933 133.133 67.56 134.04C69.0267 134.947 70.16 136.187 70.96 137.76C71.7867 139.333 72.2 141.12 72.2 143.12C72.2 145.12 71.7867 146.907 70.96 148.48C70.16 150.027 69.0133 151.253 67.52 152.16C66.0533 153.04 64.3333 153.48 62.36 153.48ZM62 150.56C63.3333 150.56 64.5067 150.253 65.52 149.64C66.5333 149 67.3333 148.12 67.92 147C68.5067 145.88 68.8 144.573 68.8 143.08C68.8 141.587 68.5067 140.28 67.92 139.16C67.3333 138.04 66.5333 137.173 65.52 136.56C64.5067 135.92 63.3333 135.6 62 135.6C60.6667 135.6 59.4933 135.92 58.48 136.56C57.4667 137.173 56.6667 138.04 56.08 139.16C55.4933 140.28 55.2 141.587 55.2 143.08C55.2 144.573 55.4933 145.88 56.08 147C56.6667 148.12 57.4667 149 58.48 149.64C59.4933 150.253 60.6667 150.56 62 150.56ZM84.3172 153.48C81.9705 153.48 80.1039 152.773 78.7172 151.36C77.3305 149.92 76.6372 147.72 76.6372 144.76V133.16H79.9972V144.4C79.9972 148.533 81.6905 150.6 85.0772 150.6C86.8105 150.6 88.2372 149.987 89.3572 148.76C90.5039 147.507 91.0772 145.733 91.0772 143.44V133.16H94.4372V153H91.3972L91.1572 149.44C90.5439 150.693 89.6239 151.68 88.3972 152.4C87.1972 153.12 85.8372 153.48 84.3172 153.48ZM109.168 153.48C107.194 153.48 105.461 153.027 103.968 152.12C102.501 151.213 101.354 149.973 100.528 148.4C99.7278 146.827 99.3278 145.04 99.3278 143.04C99.3278 141.04 99.7411 139.267 100.568 137.72C101.394 136.147 102.541 134.92 104.008 134.04C105.474 133.133 107.208 132.68 109.208 132.68C110.834 132.68 112.274 133.013 113.528 133.68C114.781 134.347 115.754 135.28 116.448 136.48V124.2H119.808V153H116.768L116.448 149.72C115.808 150.68 114.888 151.547 113.688 152.32C112.488 153.093 110.981 153.48 109.168 153.48ZM109.528 150.56C110.861 150.56 112.034 150.253 113.048 149.64C114.088 149 114.888 148.12 115.448 147C116.034 145.88 116.328 144.573 116.328 143.08C116.328 141.587 116.034 140.28 115.448 139.16C114.888 138.04 114.088 137.173 113.048 136.56C112.034 135.92 110.861 135.6 109.528 135.6C108.221 135.6 107.048 135.92 106.008 136.56C104.994 137.173 104.194 138.04 103.608 139.16C103.048 140.28 102.768 141.587 102.768 143.08C102.768 144.573 103.048 145.88 103.608 147C104.194 148.12 104.994 149 106.008 149.64C107.048 150.253 108.221 150.56 109.528 150.56ZM134.485 153.48C132.512 153.48 130.778 153.027 129.285 152.12C127.818 151.213 126.672 149.973 125.845 148.4C125.045 146.827 124.645 145.04 124.645 143.04C124.645 141.04 125.058 139.267 125.885 137.72C126.712 136.147 127.858 134.92 129.325 134.04C130.792 133.133 132.525 132.68 134.525 132.68C136.152 132.68 137.592 133.013 138.845 133.68C140.098 134.347 141.072 135.28 141.765 136.48V124.2H145.125V153H142.085L141.765 149.72C141.125 150.68 140.205 151.547 139.005 152.32C137.805 153.093 136.298 153.48 134.485 153.48ZM134.845 150.56C136.178 150.56 137.352 150.253 138.365 149.64C139.405 149 140.205 148.12 140.765 147C141.352 145.88 141.645 144.573 141.645 143.08C141.645 141.587 141.352 140.28 140.765 139.16C140.205 138.04 139.405 137.173 138.365 136.56C137.352 135.92 136.178 135.6 134.845 135.6C133.538 135.6 132.365 135.92 131.325 136.56C130.312 137.173 129.512 138.04 128.925 139.16C128.365 140.28 128.085 141.587 128.085 143.08C128.085 144.573 128.365 145.88 128.925 147C129.512 148.12 130.312 149 131.325 149.64C132.365 150.253 133.538 150.56 134.845 150.56ZM152.962 161.8L157.882 151.08H156.722L148.842 133.16H152.482L159.042 148.6L166.002 133.16H169.482L156.482 161.8H152.962Z" fill="black"/>
</svg>
