<svg width="300" height="300" viewBox="0 0 300 300" fill="none" xmlns="http://www.w3.org/2000/svg">
<circle cx="150" cy="150" r="148.5" fill="#FEC7C7" stroke="black" stroke-width="3"/>
<circle cx="194.11" cy="60.1098" r="21.6098" fill="black" stroke="black"/>
<ellipse cx="181.263" cy="52.6402" rx="2.68902" ry="5.07927" fill="white"/>
<ellipse cx="189.627" cy="52.6402" rx="2.68902" ry="5.07927" fill="white"/>
<path d="M187.834 76.2439V84.311C187.834 85.7961 186.63 87 185.145 87V87" stroke="black" stroke-width="3" stroke-linecap="round"/>
<path d="M204.568 76.2439V84.311C204.568 85.7961 203.364 87 201.879 87V87" stroke="black" stroke-width="3" stroke-linecap="round"/>
<path d="M57.76 96L57.76 76.16H60.8L61.04 79.04C61.68 77.9733 62.5333 77.1467 63.6 76.56C64.6667 75.9733 65.8667 75.68 67.2 75.68C68.7733 75.68 70.12 76 71.24 76.64C72.3867 77.28 73.2667 78.2533 73.88 79.56C74.5733 78.36 75.52 77.4133 76.72 76.72C77.9467 76.0267 79.2667 75.68 80.68 75.68C83.0533 75.68 84.9467 76.4 86.36 77.84C87.7733 79.2533 88.48 81.44 88.48 84.4V96H85.16V84.76C85.16 82.7067 84.7467 81.16 83.92 80.12C83.0933 79.08 81.9067 78.56 80.36 78.56C78.76 78.56 77.4267 79.1867 76.36 80.44C75.32 81.6667 74.8 83.4267 74.8 85.72V96H71.44V84.76C71.44 82.7067 71.0267 81.16 70.2 80.12C69.3733 79.08 68.1867 78.56 66.64 78.56C65.0667 78.56 63.7467 79.1867 62.68 80.44C61.64 81.6667 61.12 83.4267 61.12 85.72L61.12 96H57.76ZM95.3153 104.8L100.235 94.08H99.0753L91.1953 76.16H94.8353L101.395 91.6L108.355 76.16H111.835L98.8353 104.8H95.3153ZM61.76 144L55.96 124.16H59.32L63.52 139.72L68.16 124.16H71.96L76.64 139.72L80.8 124.16H84.2L78.4 144H74.96L70.08 127.64L65.2 144H61.76ZM88.1163 144L88.1163 124.16H91.1563L91.4363 127.96C92.0496 126.653 92.9829 125.613 94.2363 124.84C95.4896 124.067 97.0363 123.68 98.8763 123.68V127.2H97.9563C96.7829 127.2 95.7029 127.413 94.7163 127.84C93.7296 128.24 92.9429 128.933 92.3563 129.92C91.7696 130.907 91.4763 132.267 91.4763 134V144H88.1163ZM104.888 119.76C104.221 119.76 103.661 119.547 103.208 119.12C102.781 118.667 102.568 118.107 102.568 117.44C102.568 116.8 102.781 116.267 103.208 115.84C103.661 115.413 104.221 115.2 104.888 115.2C105.528 115.2 106.074 115.413 106.528 115.84C106.981 116.267 107.208 116.8 107.208 117.44C107.208 118.107 106.981 118.667 106.528 119.12C106.074 119.547 105.528 119.76 104.888 119.76ZM103.208 144L103.208 124.16H106.568L106.568 144H103.208ZM120.458 144C118.644 144 117.218 143.56 116.178 142.68C115.138 141.8 114.618 140.213 114.618 137.92L114.618 127H111.178V124.16H114.618L115.058 119.4H117.978V124.16L123.818 124.16V127L117.978 127L117.978 137.92C117.978 139.173 118.231 140.027 118.738 140.48C119.244 140.907 120.138 141.12 121.418 141.12H123.498V144H120.458ZM130.327 119.76C129.66 119.76 129.1 119.547 128.647 119.12C128.22 118.667 128.007 118.107 128.007 117.44C128.007 116.8 128.22 116.267 128.647 115.84C129.1 115.413 129.66 115.2 130.327 115.2C130.967 115.2 131.513 115.413 131.967 115.84C132.42 116.267 132.647 116.8 132.647 117.44C132.647 118.107 132.42 118.667 131.967 119.12C131.513 119.547 130.967 119.76 130.327 119.76ZM128.647 144V124.16H132.007V144H128.647ZM138.057 144V124.16H141.097L141.297 127.72C141.937 126.467 142.857 125.48 144.057 124.76C145.257 124.04 146.617 123.68 148.137 123.68C150.484 123.68 152.35 124.4 153.737 125.84C155.15 127.253 155.857 129.44 155.857 132.4V144H152.497V132.76C152.497 128.627 150.79 126.56 147.377 126.56C145.67 126.56 144.244 127.187 143.097 128.44C141.977 129.667 141.417 131.427 141.417 133.72V144H138.057ZM168.987 137.76C167.867 137.76 166.841 137.613 165.907 137.32L163.907 139.2C164.201 139.413 164.561 139.6 164.987 139.76C165.441 139.893 166.081 140.027 166.907 140.16C167.734 140.267 168.894 140.387 170.387 140.52C173.054 140.707 174.961 141.32 176.107 142.36C177.254 143.4 177.827 144.76 177.827 146.44C177.827 147.587 177.507 148.68 176.867 149.72C176.254 150.76 175.294 151.613 173.987 152.28C172.707 152.947 171.054 153.28 169.027 153.28C167.241 153.28 165.654 153.04 164.267 152.56C162.881 152.107 161.801 151.4 161.027 150.44C160.254 149.507 159.867 148.32 159.867 146.88C159.867 146.133 160.067 145.32 160.467 144.44C160.867 143.587 161.614 142.773 162.707 142C162.121 141.76 161.614 141.507 161.187 141.24C160.787 140.947 160.414 140.627 160.067 140.28V139.36L163.467 136C161.894 134.667 161.107 132.907 161.107 130.72C161.107 129.413 161.414 128.227 162.027 127.16C162.641 126.093 163.534 125.253 164.707 124.64C165.881 124 167.307 123.68 168.987 123.68C170.134 123.68 171.174 123.84 172.107 124.16H179.427V126.68L175.707 126.84C176.481 127.96 176.867 129.253 176.867 130.72C176.867 132.027 176.547 133.213 175.907 134.28C175.294 135.347 174.401 136.2 173.227 136.84C172.081 137.453 170.667 137.76 168.987 137.76ZM168.987 135C170.401 135 171.521 134.64 172.347 133.92C173.201 133.173 173.627 132.107 173.627 130.72C173.627 129.36 173.201 128.32 172.347 127.6C171.521 126.853 170.401 126.48 168.987 126.48C167.547 126.48 166.401 126.853 165.547 127.6C164.721 128.32 164.307 129.36 164.307 130.72C164.307 132.107 164.721 133.173 165.547 133.92C166.401 134.64 167.547 135 168.987 135ZM163.147 146.56C163.147 147.893 163.707 148.88 164.827 149.52C165.947 150.187 167.347 150.52 169.027 150.52C170.681 150.52 172.001 150.16 172.987 149.44C174.001 148.72 174.507 147.76 174.507 146.56C174.507 145.707 174.161 144.96 173.467 144.32C172.774 143.707 171.494 143.347 169.627 143.24C168.161 143.133 166.894 143 165.827 142.84C164.734 143.427 164.014 144.053 163.667 144.72C163.321 145.413 163.147 146.027 163.147 146.56ZM58.84 192V175H55.84L55.84 172.16H58.84V168.72C58.84 166.8 59.32 165.4 60.28 164.52C61.24 163.64 62.64 163.2 64.48 163.2H66.48V166.08H65C63.9867 166.08 63.2667 166.293 62.84 166.72C62.4133 167.12 62.2 167.813 62.2 168.8V172.16H67.08V175H62.2L62.2 192H58.84ZM71.2803 192L71.2803 172.16H74.3203L74.6003 175.96C75.2136 174.653 76.147 173.613 77.4003 172.84C78.6536 172.067 80.2003 171.68 82.0403 171.68V175.2H81.1203C79.947 175.2 78.867 175.413 77.8803 175.84C76.8936 176.24 76.107 176.933 75.5203 177.92C74.9336 178.907 74.6403 180.267 74.6403 182L74.6403 192H71.2803ZM88.0516 167.76C87.3849 167.76 86.8249 167.547 86.3716 167.12C85.9449 166.667 85.7316 166.107 85.7316 165.44C85.7316 164.8 85.9449 164.267 86.3716 163.84C86.8249 163.413 87.3849 163.2 88.0516 163.2C88.6916 163.2 89.2382 163.413 89.6916 163.84C90.1449 164.267 90.3716 164.8 90.3716 165.44C90.3716 166.107 90.1449 166.667 89.6916 167.12C89.2382 167.547 88.6916 167.76 88.0516 167.76ZM86.3716 192L86.3716 172.16H89.7316L89.7316 192H86.3716ZM104.702 192.48C102.809 192.48 101.129 192.053 99.6619 191.2C98.1952 190.32 97.0352 189.107 96.1819 187.56C95.3552 186.013 94.9419 184.187 94.9419 182.08C94.9419 180 95.3552 178.187 96.1819 176.64C97.0085 175.067 98.1552 173.853 99.6219 173C101.115 172.12 102.835 171.68 104.782 171.68C106.702 171.68 108.355 172.12 109.742 173C111.155 173.853 112.235 174.987 112.982 176.4C113.729 177.813 114.102 179.333 114.102 180.96C114.102 181.253 114.089 181.547 114.062 181.84C114.062 182.133 114.062 182.467 114.062 182.84H98.2619C98.3419 184.36 98.6885 185.627 99.3019 186.64C99.9419 187.627 100.729 188.373 101.662 188.88C102.622 189.387 103.635 189.64 104.702 189.64C106.089 189.64 107.249 189.32 108.182 188.68C109.115 188.04 109.795 187.173 110.222 186.08H113.542C113.009 187.92 111.982 189.453 110.462 190.68C108.969 191.88 107.049 192.48 104.702 192.48ZM104.702 174.52C103.102 174.52 101.675 175.013 100.422 176C99.1952 176.96 98.4885 178.373 98.3019 180.24H110.782C110.702 178.453 110.089 177.053 108.942 176.04C107.795 175.027 106.382 174.52 104.702 174.52ZM118.755 192L118.755 172.16H121.795L121.995 175.72C122.635 174.467 123.555 173.48 124.755 172.76C125.955 172.04 127.315 171.68 128.835 171.68C131.182 171.68 133.049 172.4 134.435 173.84C135.849 175.253 136.555 177.44 136.555 180.4V192H133.195V180.76C133.195 176.627 131.489 174.56 128.075 174.56C126.369 174.56 124.942 175.187 123.795 176.44C122.675 177.667 122.115 179.427 122.115 181.72V192H118.755ZM150.846 192.48C148.873 192.48 147.139 192.027 145.646 191.12C144.179 190.213 143.033 188.973 142.206 187.4C141.406 185.827 141.006 184.04 141.006 182.04C141.006 180.04 141.419 178.267 142.246 176.72C143.073 175.147 144.219 173.92 145.686 173.04C147.153 172.133 148.886 171.68 150.886 171.68C152.513 171.68 153.953 172.013 155.206 172.68C156.459 173.347 157.433 174.28 158.126 175.48V163.2H161.486V192H158.446L158.126 188.72C157.486 189.68 156.566 190.547 155.366 191.32C154.166 192.093 152.659 192.48 150.846 192.48ZM151.206 189.56C152.539 189.56 153.713 189.253 154.726 188.64C155.766 188 156.566 187.12 157.126 186C157.713 184.88 158.006 183.573 158.006 182.08C158.006 180.587 157.713 179.28 157.126 178.16C156.566 177.04 155.766 176.173 154.726 175.56C153.713 174.92 152.539 174.6 151.206 174.6C149.899 174.6 148.726 174.92 147.686 175.56C146.673 176.173 145.873 177.04 145.286 178.16C144.726 179.28 144.446 180.587 144.446 182.08C144.446 183.573 144.726 184.88 145.286 186C145.873 187.12 146.673 188 147.686 188.64C148.726 189.253 149.899 189.56 151.206 189.56Z" fill="black"/>
</svg>
