<svg width="300" height="300" viewBox="0 0 300 300" fill="none" xmlns="http://www.w3.org/2000/svg">
<circle cx="150" cy="150" r="148.5" fill="#0BD069" stroke="black" stroke-width="3"/>
<circle cx="150.11" cy="224.11" r="21.6098" fill="black" stroke="black"/>
<ellipse cx="137.263" cy="216.64" rx="2.68902" ry="5.07927" fill="white"/>
<ellipse cx="145.627" cy="216.64" rx="2.68902" ry="5.07927" fill="white"/>
<path d="M143.834 240.244V248.311C143.834 249.796 142.63 251 141.145 251V251" stroke="black" stroke-width="3" stroke-linecap="round"/>
<path d="M160.568 240.244V248.311C160.568 249.796 159.364 251 157.879 251V251" stroke="black" stroke-width="3" stroke-linecap="round"/>
<path d="M77.88 117.48C75.9867 117.48 74.28 117.053 72.76 116.2C71.2667 115.32 70.08 114.107 69.2 112.56C68.3467 110.987 67.92 109.16 67.92 107.08C67.92 105 68.3467 103.187 69.2 101.64C70.08 100.067 71.2667 98.8533 72.76 98C74.28 97.12 75.9867 96.68 77.88 96.68C80.2267 96.68 82.2 97.2933 83.8 98.52C85.4267 99.7467 86.4533 101.387 86.88 103.44H83.44C83.1733 102.213 82.52 101.267 81.48 100.6C80.44 99.9067 79.2267 99.56 77.84 99.56C76.72 99.56 75.6667 99.84 74.68 100.4C73.6933 100.96 72.8933 101.8 72.28 102.92C71.6667 104.04 71.36 105.427 71.36 107.08C71.36 108.733 71.6667 110.12 72.28 111.24C72.8933 112.36 73.6933 113.213 74.68 113.8C75.6667 114.36 76.72 114.64 77.84 114.64C79.2267 114.64 80.44 114.307 81.48 113.64C82.52 112.947 83.1733 111.973 83.44 110.72H86.88C86.48 112.72 85.4667 114.347 83.84 115.6C82.2133 116.853 80.2267 117.48 77.88 117.48ZM91.7725 117V88.2H95.1325V117H91.7725ZM109.76 117.48C107.866 117.48 106.186 117.053 104.72 116.2C103.253 115.32 102.093 114.107 101.24 112.56C100.413 111.013 99.9997 109.187 99.9997 107.08C99.9997 105 100.413 103.187 101.24 101.64C102.066 100.067 103.213 98.8533 104.68 98C106.173 97.12 107.893 96.68 109.84 96.68C111.76 96.68 113.413 97.12 114.8 98C116.213 98.8533 117.293 99.9867 118.04 101.4C118.786 102.813 119.16 104.333 119.16 105.96C119.16 106.253 119.146 106.547 119.12 106.84C119.12 107.133 119.12 107.467 119.12 107.84H103.32C103.4 109.36 103.746 110.627 104.36 111.64C105 112.627 105.786 113.373 106.72 113.88C107.68 114.387 108.693 114.64 109.76 114.64C111.146 114.64 112.306 114.32 113.24 113.68C114.173 113.04 114.853 112.173 115.28 111.08H118.6C118.066 112.92 117.04 114.453 115.52 115.68C114.026 116.88 112.106 117.48 109.76 117.48ZM109.76 99.52C108.16 99.52 106.733 100.013 105.48 101C104.253 101.96 103.546 103.373 103.36 105.24H115.84C115.76 103.453 115.146 102.053 114 101.04C112.853 100.027 111.44 99.52 109.76 99.52ZM130.413 117.48C128.76 117.48 127.386 117.2 126.293 116.64C125.2 116.08 124.386 115.333 123.853 114.4C123.32 113.467 123.053 112.453 123.053 111.36C123.053 109.333 123.826 107.773 125.373 106.68C126.92 105.587 129.026 105.04 131.693 105.04H137.053V104.8C137.053 103.067 136.6 101.76 135.693 100.88C134.786 99.9733 133.573 99.52 132.053 99.52C130.746 99.52 129.613 99.8533 128.653 100.52C127.72 101.16 127.133 102.107 126.893 103.36H123.453C123.586 101.92 124.066 100.707 124.893 99.72C125.746 98.7333 126.8 97.9867 128.053 97.48C129.306 96.9467 130.64 96.68 132.053 96.68C134.826 96.68 136.906 97.4267 138.293 98.92C139.706 100.387 140.413 102.347 140.413 104.8V117H137.413L137.213 113.44C136.653 114.56 135.826 115.52 134.733 116.32C133.666 117.093 132.226 117.48 130.413 117.48ZM130.933 114.64C132.213 114.64 133.306 114.307 134.213 113.64C135.146 112.973 135.853 112.107 136.333 111.04C136.813 109.973 137.053 108.853 137.053 107.68V107.64H131.973C130 107.64 128.6 107.987 127.773 108.68C126.973 109.347 126.573 110.187 126.573 111.2C126.573 112.24 126.946 113.08 127.693 113.72C128.466 114.333 129.546 114.64 130.933 114.64ZM145.654 117V97.16H148.694L148.974 100.96C149.587 99.6533 150.52 98.6133 151.774 97.84C153.027 97.0667 154.574 96.68 156.414 96.68V100.2H155.494C154.32 100.2 153.24 100.413 152.254 100.84C151.267 101.24 150.48 101.933 149.894 102.92C149.307 103.907 149.014 105.267 149.014 107V117H145.654ZM171.171 117V97.16H174.211L174.451 100.04C175.091 98.9733 175.944 98.1467 177.011 97.56C178.078 96.9733 179.278 96.68 180.611 96.68C182.184 96.68 183.531 97 184.651 97.64C185.798 98.28 186.678 99.2533 187.291 100.56C187.984 99.36 188.931 98.4133 190.131 97.72C191.358 97.0267 192.678 96.68 194.091 96.68C196.464 96.68 198.358 97.4 199.771 98.84C201.184 100.253 201.891 102.44 201.891 105.4V117H198.571V105.76C198.571 103.707 198.158 102.16 197.331 101.12C196.504 100.08 195.318 99.56 193.771 99.56C192.171 99.56 190.838 100.187 189.771 101.44C188.731 102.667 188.211 104.427 188.211 106.72V117L184.851 117V105.76C184.851 103.707 184.438 102.16 183.611 101.12C182.784 100.08 181.598 99.56 180.051 99.56C178.478 99.56 177.158 100.187 176.091 101.44C175.051 102.667 174.531 104.427 174.531 106.72V117H171.171ZM208.726 125.8L213.646 115.08H212.486L204.606 97.16H208.246L214.806 112.6L221.766 97.16H225.246L212.246 125.8H208.726ZM77.76 165.48C75.7867 165.48 74.0533 165.027 72.56 164.12C71.0933 163.213 69.9467 161.973 69.12 160.4C68.32 158.827 67.92 157.04 67.92 155.04C67.92 153.04 68.3333 151.267 69.16 149.72C69.9867 148.147 71.1333 146.92 72.6 146.04C74.0667 145.133 75.8 144.68 77.8 144.68C79.4267 144.68 80.8667 145.013 82.12 145.68C83.3733 146.347 84.3467 147.28 85.04 148.48L85.04 136.2H88.4L88.4 165H85.36L85.04 161.72C84.4 162.68 83.48 163.547 82.28 164.32C81.08 165.093 79.5733 165.48 77.76 165.48ZM78.12 162.56C79.4533 162.56 80.6267 162.253 81.64 161.64C82.68 161 83.48 160.12 84.04 159C84.6267 157.88 84.92 156.573 84.92 155.08C84.92 153.587 84.6267 152.28 84.04 151.16C83.48 150.04 82.68 149.173 81.64 148.56C80.6267 147.92 79.4533 147.6 78.12 147.6C76.8133 147.6 75.64 147.92 74.6 148.56C73.5867 149.173 72.7867 150.04 72.2 151.16C71.64 152.28 71.36 153.587 71.36 155.08C71.36 156.573 71.64 157.88 72.2 159C72.7867 160.12 73.5867 161 74.6 161.64C75.64 162.253 76.8133 162.56 78.12 162.56ZM96.1172 140.76C95.4505 140.76 94.8905 140.547 94.4372 140.12C94.0105 139.667 93.7972 139.107 93.7972 138.44C93.7972 137.8 94.0105 137.267 94.4372 136.84C94.8905 136.413 95.4505 136.2 96.1172 136.2C96.7572 136.2 97.3039 136.413 97.7572 136.84C98.2105 137.267 98.4372 137.8 98.4372 138.44C98.4372 139.107 98.2105 139.667 97.7572 140.12C97.3039 140.547 96.7572 140.76 96.1172 140.76ZM94.4372 165V145.16H97.7972V165H94.4372ZM103.848 165L103.848 136.2H107.208L107.208 165H103.848ZM121.835 165.48C119.941 165.48 118.261 165.053 116.795 164.2C115.328 163.32 114.168 162.107 113.315 160.56C112.488 159.013 112.075 157.187 112.075 155.08C112.075 153 112.488 151.187 113.315 149.64C114.141 148.067 115.288 146.853 116.755 146C118.248 145.12 119.968 144.68 121.915 144.68C123.835 144.68 125.488 145.12 126.875 146C128.288 146.853 129.368 147.987 130.115 149.4C130.861 150.813 131.235 152.333 131.235 153.96C131.235 154.253 131.221 154.547 131.195 154.84C131.195 155.133 131.195 155.467 131.195 155.84H115.395C115.475 157.36 115.821 158.627 116.435 159.64C117.075 160.627 117.861 161.373 118.795 161.88C119.755 162.387 120.768 162.64 121.835 162.64C123.221 162.64 124.381 162.32 125.315 161.68C126.248 161.04 126.928 160.173 127.355 159.08H130.675C130.141 160.92 129.115 162.453 127.595 163.68C126.101 164.88 124.181 165.48 121.835 165.48ZM121.835 147.52C120.235 147.52 118.808 148.013 117.555 149C116.328 149.96 115.621 151.373 115.435 153.24H127.915C127.835 151.453 127.221 150.053 126.075 149.04C124.928 148.027 123.515 147.52 121.835 147.52ZM135.888 165V145.16H138.928L139.168 148.04C139.808 146.973 140.661 146.147 141.728 145.56C142.795 144.973 143.995 144.68 145.328 144.68C146.901 144.68 148.248 145 149.368 145.64C150.515 146.28 151.395 147.253 152.008 148.56C152.701 147.36 153.648 146.413 154.848 145.72C156.075 145.027 157.395 144.68 158.808 144.68C161.181 144.68 163.075 145.4 164.488 146.84C165.901 148.253 166.608 150.44 166.608 153.4V165H163.288V153.76C163.288 151.707 162.875 150.16 162.048 149.12C161.221 148.08 160.035 147.56 158.488 147.56C156.888 147.56 155.555 148.187 154.488 149.44C153.448 150.667 152.928 152.427 152.928 154.72V165H149.568V153.76C149.568 151.707 149.155 150.16 148.328 149.12C147.501 148.08 146.315 147.56 144.768 147.56C143.195 147.56 141.875 148.187 140.808 149.44C139.768 150.667 139.248 152.427 139.248 154.72V165H135.888ZM171.869 165V145.16H174.909L175.149 148.04C175.789 146.973 176.643 146.147 177.709 145.56C178.776 144.973 179.976 144.68 181.309 144.68C182.883 144.68 184.229 145 185.349 145.64C186.496 146.28 187.376 147.253 187.989 148.56C188.683 147.36 189.629 146.413 190.829 145.72C192.056 145.027 193.376 144.68 194.789 144.68C197.163 144.68 199.056 145.4 200.469 146.84C201.883 148.253 202.589 150.44 202.589 153.4V165H199.269V153.76C199.269 151.707 198.856 150.16 198.029 149.12C197.203 148.08 196.016 147.56 194.469 147.56C192.869 147.56 191.536 148.187 190.469 149.44C189.429 150.667 188.909 152.427 188.909 154.72V165H185.549V153.76C185.549 151.707 185.136 150.16 184.309 149.12C183.483 148.08 182.296 147.56 180.749 147.56C179.176 147.56 177.856 148.187 176.789 149.44C175.749 150.667 175.229 152.427 175.229 154.72V165H171.869ZM214.451 165.48C212.797 165.48 211.424 165.2 210.331 164.64C209.237 164.08 208.424 163.333 207.891 162.4C207.357 161.467 207.091 160.453 207.091 159.36C207.091 157.333 207.864 155.773 209.411 154.68C210.957 153.587 213.064 153.04 215.731 153.04H221.091V152.8C221.091 151.067 220.637 149.76 219.731 148.88C218.824 147.973 217.611 147.52 216.091 147.52C214.784 147.52 213.651 147.853 212.691 148.52C211.757 149.16 211.171 150.107 210.931 151.36H207.491C207.624 149.92 208.104 148.707 208.931 147.72C209.784 146.733 210.837 145.987 212.091 145.48C213.344 144.947 214.677 144.68 216.091 144.68C218.864 144.68 220.944 145.427 222.331 146.92C223.744 148.387 224.451 150.347 224.451 152.8V165H221.451L221.251 161.44C220.691 162.56 219.864 163.52 218.771 164.32C217.704 165.093 216.264 165.48 214.451 165.48ZM214.971 162.64C216.251 162.64 217.344 162.307 218.251 161.64C219.184 160.973 219.891 160.107 220.371 159.04C220.851 157.973 221.091 156.853 221.091 155.68V155.64H216.011C214.037 155.64 212.637 155.987 211.811 156.68C211.011 157.347 210.611 158.187 210.611 159.2C210.611 160.24 210.984 161.08 211.731 161.72C212.504 162.333 213.584 162.64 214.971 162.64Z" fill="black"/>
</svg>
