<svg width="300" height="300" viewBox="0 0 300 300" fill="none" xmlns="http://www.w3.org/2000/svg">
<circle cx="150" cy="150" r="148.5" fill="#FF9B31" stroke="black" stroke-width="3"/>
<circle cx="211.11" cy="200.11" r="21.6098" fill="black" stroke="black"/>
<ellipse cx="198.263" cy="192.64" rx="2.68902" ry="5.07927" fill="white"/>
<ellipse cx="206.627" cy="192.64" rx="2.68902" ry="5.07927" fill="white"/>
<path d="M204.834 216.244V224.311C204.834 225.796 203.63 227 202.145 227V227" stroke="black" stroke-width="3" stroke-linecap="round"/>
<path d="M221.568 216.244V224.311C221.568 225.796 220.364 227 218.879 227V227" stroke="black" stroke-width="3" stroke-linecap="round"/>
<path d="M60.76 113.48C58.7867 113.48 57.0533 113.027 55.56 112.12C54.0933 111.213 52.9467 109.973 52.12 108.4C51.32 106.827 50.92 105.04 50.92 103.04C50.92 101.04 51.3333 99.2667 52.16 97.72C52.9867 96.1467 54.1333 94.92 55.6 94.04C57.0667 93.1333 58.8 92.68 60.8 92.68C62.4267 92.68 63.8667 93.0133 65.12 93.68C66.3733 94.3467 67.3467 95.28 68.04 96.48V84.2H71.4V113H68.36L68.04 109.72C67.4 110.68 66.48 111.547 65.28 112.32C64.08 113.093 62.5733 113.48 60.76 113.48ZM61.12 110.56C62.4533 110.56 63.6267 110.253 64.64 109.64C65.68 109 66.48 108.12 67.04 107C67.6267 105.88 67.92 104.573 67.92 103.08C67.92 101.587 67.6267 100.28 67.04 99.16C66.48 98.04 65.68 97.1733 64.64 96.56C63.6267 95.92 62.4533 95.6 61.12 95.6C59.8133 95.6 58.64 95.92 57.6 96.56C56.5867 97.1733 55.7867 98.04 55.2 99.16C54.64 100.28 54.36 101.587 54.36 103.08C54.36 104.573 54.64 105.88 55.2 107C55.7867 108.12 56.5867 109 57.6 109.64C58.64 110.253 59.8133 110.56 61.12 110.56ZM79.1172 88.76C78.4505 88.76 77.8905 88.5467 77.4372 88.12C77.0105 87.6667 76.7972 87.1067 76.7972 86.44C76.7972 85.8 77.0105 85.2667 77.4372 84.84C77.8905 84.4133 78.4505 84.2 79.1172 84.2C79.7572 84.2 80.3039 84.4133 80.7572 84.84C81.2105 85.2667 81.4372 85.8 81.4372 86.44C81.4372 87.1067 81.2105 87.6667 80.7572 88.12C80.3039 88.5467 79.7572 88.76 79.1172 88.76ZM77.4372 113V93.16H80.7972V113H77.4372ZM94.6875 106.76C93.5675 106.76 92.5408 106.613 91.6075 106.32L89.6075 108.2C89.9008 108.413 90.2608 108.6 90.6875 108.76C91.1408 108.893 91.7808 109.027 92.6075 109.16C93.4342 109.267 94.5942 109.387 96.0875 109.52C98.7542 109.707 100.661 110.32 101.808 111.36C102.954 112.4 103.528 113.76 103.528 115.44C103.528 116.587 103.208 117.68 102.568 118.72C101.954 119.76 100.994 120.613 99.6875 121.28C98.4075 121.947 96.7542 122.28 94.7275 122.28C92.9408 122.28 91.3542 122.04 89.9675 121.56C88.5808 121.107 87.5008 120.4 86.7275 119.44C85.9542 118.507 85.5675 117.32 85.5675 115.88C85.5675 115.133 85.7675 114.32 86.1675 113.44C86.5675 112.587 87.3142 111.773 88.4075 111C87.8208 110.76 87.3142 110.507 86.8875 110.24C86.4875 109.947 86.1142 109.627 85.7675 109.28V108.36L89.1675 105C87.5942 103.667 86.8075 101.907 86.8075 99.72C86.8075 98.4133 87.1142 97.2267 87.7275 96.16C88.3408 95.0933 89.2342 94.2533 90.4075 93.64C91.5808 93 93.0075 92.68 94.6875 92.68C95.8342 92.68 96.8742 92.84 97.8075 93.16L105.128 93.16V95.68L101.408 95.84C102.181 96.96 102.568 98.2533 102.568 99.72C102.568 101.027 102.248 102.213 101.608 103.28C100.994 104.347 100.101 105.2 98.9275 105.84C97.7808 106.453 96.3675 106.76 94.6875 106.76ZM94.6875 104C96.1008 104 97.2208 103.64 98.0475 102.92C98.9008 102.173 99.3275 101.107 99.3275 99.72C99.3275 98.36 98.9008 97.32 98.0475 96.6C97.2208 95.8533 96.1008 95.48 94.6875 95.48C93.2475 95.48 92.1008 95.8533 91.2475 96.6C90.4208 97.32 90.0075 98.36 90.0075 99.72C90.0075 101.107 90.4208 102.173 91.2475 102.92C92.1008 103.64 93.2475 104 94.6875 104ZM88.8475 115.56C88.8475 116.893 89.4075 117.88 90.5275 118.52C91.6475 119.187 93.0475 119.52 94.7275 119.52C96.3808 119.52 97.7008 119.16 98.6875 118.44C99.7008 117.72 100.208 116.76 100.208 115.56C100.208 114.707 99.8608 113.96 99.1675 113.32C98.4742 112.707 97.1942 112.347 95.3275 112.24C93.8608 112.133 92.5942 112 91.5275 111.84C90.4342 112.427 89.7142 113.053 89.3675 113.72C89.0208 114.413 88.8475 115.027 88.8475 115.56ZM111.158 88.76C110.491 88.76 109.931 88.5467 109.478 88.12C109.051 87.6667 108.838 87.1067 108.838 86.44C108.838 85.8 109.051 85.2667 109.478 84.84C109.931 84.4133 110.491 84.2 111.158 84.2C111.798 84.2 112.344 84.4133 112.798 84.84C113.251 85.2667 113.478 85.8 113.478 86.44C113.478 87.1067 113.251 87.6667 112.798 88.12C112.344 88.5467 111.798 88.76 111.158 88.76ZM109.478 113V93.16H112.838V113H109.478ZM126.728 113C124.915 113 123.488 112.56 122.448 111.68C121.408 110.8 120.888 109.213 120.888 106.92V96H117.448V93.16H120.888L121.328 88.4H124.248V93.16H130.088V96H124.248V106.92C124.248 108.173 124.501 109.027 125.008 109.48C125.515 109.907 126.408 110.12 127.688 110.12H129.768V113H126.728ZM141.157 113.48C139.504 113.48 138.13 113.2 137.037 112.64C135.944 112.08 135.13 111.333 134.597 110.4C134.064 109.467 133.797 108.453 133.797 107.36C133.797 105.333 134.57 103.773 136.117 102.68C137.664 101.587 139.77 101.04 142.437 101.04H147.797V100.8C147.797 99.0667 147.344 97.76 146.437 96.88C145.53 95.9733 144.317 95.52 142.797 95.52C141.49 95.52 140.357 95.8533 139.397 96.52C138.464 97.16 137.877 98.1067 137.637 99.36H134.197C134.33 97.92 134.81 96.7067 135.637 95.72C136.49 94.7333 137.544 93.9867 138.797 93.48C140.05 92.9467 141.384 92.68 142.797 92.68C145.57 92.68 147.65 93.4267 149.037 94.92C150.45 96.3867 151.157 98.3467 151.157 100.8V113H148.157L147.957 109.44C147.397 110.56 146.57 111.52 145.477 112.32C144.41 113.093 142.97 113.48 141.157 113.48ZM141.677 110.64C142.957 110.64 144.05 110.307 144.957 109.64C145.89 108.973 146.597 108.107 147.077 107.04C147.557 105.973 147.797 104.853 147.797 103.68V103.64H142.717C140.744 103.64 139.344 103.987 138.517 104.68C137.717 105.347 137.317 106.187 137.317 107.2C137.317 108.24 137.69 109.08 138.437 109.72C139.21 110.333 140.29 110.64 141.677 110.64ZM156.397 113V84.2H159.757V113L156.397 113ZM59.6 161C57.7867 161 56.36 160.56 55.32 159.68C54.28 158.8 53.76 157.213 53.76 154.92V144H50.32L50.32 141.16H53.76L54.2 136.4H57.12L57.12 141.16H62.96V144H57.12V154.92C57.12 156.173 57.3733 157.027 57.88 157.48C58.3867 157.907 59.28 158.12 60.56 158.12H62.64V161H59.6ZM67.4288 161L67.4288 132.2H70.7888L70.7888 144.56C71.4554 143.333 72.4021 142.387 73.6288 141.72C74.8554 141.027 76.1888 140.68 77.6287 140.68C79.9221 140.68 81.7621 141.4 83.1488 142.84C84.5354 144.253 85.2287 146.44 85.2287 149.4V161H81.9088V149.76C81.9088 145.627 80.2421 143.56 76.9088 143.56C75.1754 143.56 73.7221 144.187 72.5488 145.44C71.3754 146.667 70.7888 148.427 70.7888 150.72V161H67.4288ZM99.4394 161.48C97.546 161.48 95.866 161.053 94.3994 160.2C92.9327 159.32 91.7727 158.107 90.9194 156.56C90.0927 155.013 89.6794 153.187 89.6794 151.08C89.6794 149 90.0927 147.187 90.9194 145.64C91.746 144.067 92.8927 142.853 94.3594 142C95.8527 141.12 97.5727 140.68 99.5194 140.68C101.439 140.68 103.093 141.12 104.479 142C105.893 142.853 106.973 143.987 107.719 145.4C108.466 146.813 108.839 148.333 108.839 149.96C108.839 150.253 108.826 150.547 108.799 150.84C108.799 151.133 108.799 151.467 108.799 151.84H92.9994C93.0794 153.36 93.426 154.627 94.0394 155.64C94.6794 156.627 95.466 157.373 96.3994 157.88C97.3594 158.387 98.3727 158.64 99.4394 158.64C100.826 158.64 101.986 158.32 102.919 157.68C103.853 157.04 104.533 156.173 104.959 155.08H108.279C107.746 156.92 106.719 158.453 105.199 159.68C103.706 160.88 101.786 161.48 99.4394 161.48ZM99.4394 143.52C97.8394 143.52 96.4127 144.013 95.1594 145C93.9327 145.96 93.226 147.373 93.0394 149.24H105.519C105.439 147.453 104.826 146.053 103.679 145.04C102.533 144.027 101.119 143.52 99.4394 143.52ZM113.493 161V141.16H116.533L116.813 144.96C117.426 143.653 118.359 142.613 119.613 141.84C120.866 141.067 122.413 140.68 124.253 140.68V144.2H123.333C122.159 144.2 121.079 144.413 120.093 144.84C119.106 145.24 118.319 145.933 117.733 146.92C117.146 147.907 116.853 149.267 116.853 151V161H113.493ZM134.824 161.48C133.171 161.48 131.797 161.2 130.704 160.64C129.611 160.08 128.797 159.333 128.264 158.4C127.731 157.467 127.464 156.453 127.464 155.36C127.464 153.333 128.237 151.773 129.784 150.68C131.331 149.587 133.437 149.04 136.104 149.04H141.464V148.8C141.464 147.067 141.011 145.76 140.104 144.88C139.197 143.973 137.984 143.52 136.464 143.52C135.157 143.52 134.024 143.853 133.064 144.52C132.131 145.16 131.544 146.107 131.304 147.36H127.864C127.997 145.92 128.477 144.707 129.304 143.72C130.157 142.733 131.211 141.987 132.464 141.48C133.717 140.947 135.051 140.68 136.464 140.68C139.237 140.68 141.317 141.427 142.704 142.92C144.117 144.387 144.824 146.347 144.824 148.8V161H141.824L141.624 157.44C141.064 158.56 140.237 159.52 139.144 160.32C138.077 161.093 136.637 161.48 134.824 161.48ZM135.344 158.64C136.624 158.64 137.717 158.307 138.624 157.64C139.557 156.973 140.264 156.107 140.744 155.04C141.224 153.973 141.464 152.853 141.464 151.68V151.64H136.384C134.411 151.64 133.011 151.987 132.184 152.68C131.384 153.347 130.984 154.187 130.984 155.2C130.984 156.24 131.357 157.08 132.104 157.72C132.877 158.333 133.957 158.64 135.344 158.64ZM150.065 169.8V141.16H153.105L153.425 144.44C154.065 143.48 154.971 142.613 156.145 141.84C157.345 141.067 158.865 140.68 160.705 140.68C162.678 140.68 164.398 141.133 165.865 142.04C167.331 142.947 168.465 144.187 169.265 145.76C170.091 147.333 170.505 149.12 170.505 151.12C170.505 153.12 170.091 154.907 169.265 156.48C168.465 158.027 167.318 159.253 165.825 160.16C164.358 161.04 162.638 161.48 160.665 161.48C159.038 161.48 157.585 161.147 156.305 160.48C155.051 159.813 154.091 158.88 153.425 157.68V169.8H150.065ZM160.305 158.56C161.638 158.56 162.811 158.253 163.825 157.64C164.838 157 165.638 156.12 166.225 155C166.811 153.88 167.105 152.573 167.105 151.08C167.105 149.587 166.811 148.28 166.225 147.16C165.638 146.04 164.838 145.173 163.825 144.56C162.811 143.92 161.638 143.6 160.305 143.6C158.971 143.6 157.798 143.92 156.785 144.56C155.771 145.173 154.971 146.04 154.385 147.16C153.798 148.28 153.505 149.587 153.505 151.08C153.505 152.573 153.798 153.88 154.385 155C154.971 156.12 155.771 157 156.785 157.64C157.798 158.253 158.971 158.56 160.305 158.56ZM177.422 136.76C176.755 136.76 176.195 136.547 175.742 136.12C175.315 135.667 175.102 135.107 175.102 134.44C175.102 133.8 175.315 133.267 175.742 132.84C176.195 132.413 176.755 132.2 177.422 132.2C178.062 132.2 178.609 132.413 179.062 132.84C179.515 133.267 179.742 133.8 179.742 134.44C179.742 135.107 179.515 135.667 179.062 136.12C178.609 136.547 178.062 136.76 177.422 136.76ZM175.742 161V141.16H179.102V161H175.742ZM192.752 161.48C190.379 161.48 188.406 160.88 186.832 159.68C185.259 158.48 184.339 156.853 184.072 154.8H187.512C187.726 155.84 188.272 156.747 189.152 157.52C190.059 158.267 191.272 158.64 192.792 158.64C194.206 158.64 195.246 158.347 195.912 157.76C196.579 157.147 196.912 156.427 196.912 155.6C196.912 154.4 196.472 153.6 195.592 153.2C194.739 152.8 193.526 152.44 191.952 152.12C190.886 151.907 189.819 151.6 188.752 151.2C187.686 150.8 186.792 150.24 186.072 149.52C185.352 148.773 184.992 147.8 184.992 146.6C184.992 144.867 185.632 143.453 186.912 142.36C188.219 141.24 189.979 140.68 192.192 140.68C194.299 140.68 196.019 141.213 197.352 142.28C198.712 143.32 199.499 144.813 199.712 146.76H196.392C196.259 145.747 195.819 144.96 195.072 144.4C194.352 143.813 193.379 143.52 192.152 143.52C190.952 143.52 190.019 143.773 189.352 144.28C188.712 144.787 188.392 145.453 188.392 146.28C188.392 147.08 188.806 147.707 189.632 148.16C190.486 148.613 191.632 149 193.072 149.32C194.299 149.587 195.459 149.92 196.552 150.32C197.672 150.693 198.579 151.267 199.272 152.04C199.992 152.787 200.352 153.88 200.352 155.32C200.379 157.107 199.699 158.587 198.312 159.76C196.952 160.907 195.099 161.48 192.752 161.48ZM212.294 161C210.48 161 209.054 160.56 208.014 159.68C206.974 158.8 206.454 157.213 206.454 154.92V144H203.014V141.16H206.454L206.894 136.4H209.814V141.16H215.654V144H209.814V154.92C209.814 156.173 210.067 157.027 210.574 157.48C211.08 157.907 211.974 158.12 213.254 158.12H215.334V161H212.294Z" fill="black"/>
<path d="M92.2031 207.821C102.204 207.821 112.204 207.821 122.205 207.821C126.518 207.821 130.779 208.145 135.088 208.145C136.546 208.145 138.657 207.978 139.881 208.794" stroke="black" stroke-width="3" stroke-linecap="round"/>
<path d="M90.2532 209.118C89.1811 209.252 87.9207 211.038 87.1539 211.713C85.581 213.097 84.0685 214.688 82.6492 216.236C81.9315 217.019 82.4616 216.903 83.2979 216.903C84.8789 216.903 86.5928 216.704 88.145 216.416C95.9403 214.972 103.894 214.957 111.804 214.957C118.191 214.957 124.563 215.605 130.958 215.605C134.78 215.605 138.094 216.421 141.805 216.885C142.847 217.015 142.559 217.274 142.472 216.578C142.381 215.847 141.294 214.684 140.922 214.056C139.868 212.271 139.016 209.554 137.607 208.145" stroke="black" stroke-width="3" stroke-linecap="round"/>
<path d="M84.625 229.72C98.3216 229.72 112.172 229.108 125.827 230.323C130.102 230.703 134.313 230.806 138.601 230.806C139.516 230.806 140.842 231.051 141.753 230.79C142.785 230.496 140.982 226.295 140.818 225.919C139.871 223.756 139.908 221.56 139.189 219.404" stroke="black" stroke-width="3" stroke-linecap="round"/>
<path d="M80.9599 206.482C79.456 206.482 78.4024 206.092 77.8284 207.671C77.3147 209.084 77.3773 210.404 77.06 211.832C76.7784 213.099 77.5465 214.333 78.1473 215.355C78.4914 215.94 80.5961 215.616 81.2208 215.616C82.4506 215.616 83.1096 215.393 84.2073 215.079C84.888 214.885 85.021 212.15 84.8597 211.585C84.388 209.934 81.6826 207.526 79.916 207.526" stroke="black" stroke-width="3" stroke-linecap="round"/>
<path d="M79.1328 206.221C80.1208 206.122 81.5908 204.697 82.4673 204.133C83.1137 203.718 83.563 203.241 84.149 202.829C85.1165 202.148 86.1788 201.06 87.2225 200.538C87.7506 200.274 88.8666 200.48 89.4406 200.48C90.5837 200.48 90.564 200.349 91.0208 201.263C91.3805 201.982 91.6866 202.827 92.0502 203.481C92.3773 204.07 92.4268 207.011 91.9197 207.265" stroke="black" stroke-width="3" stroke-linecap="round"/>
<path d="M78.3539 196.305C78.3032 197.27 77.8893 198.324 78.1075 199.306C78.2189 199.807 80.243 200.14 80.6881 200.335C81.6728 200.766 84.5301 200.389 84.6169 198.914C84.7078 197.368 84.2678 195 82.3843 195C81.0009 195 78.5057 195.218 77.832 196.566" stroke="#F24E1E" stroke-width="3" stroke-linecap="round"/>
<path d="M84.3555 200.741C84.4453 201.46 86.6293 202.661 87.168 203.09C88.4331 204.096 90.0253 204.979 91.5318 205.569C95.8793 207.27 99.8153 207.526 104.449 207.526C106.537 207.526 108.692 207.379 110.77 207.584C113.797 207.883 116.703 208.824 119.715 209.092C122.55 209.344 125.374 209.97 128.08 210.788C129.891 211.335 132.295 212.484 134.198 212.484" stroke="#F24E1E" stroke-width="3" stroke-linecap="round"/>
<path d="M84.2093 217.401C84.2093 220.628 84.0196 223.916 84.2093 227.14C84.2212 227.342 84.2365 228.105 84.3795 228.288C84.5924 228.562 84.9314 229.27 84.4281 229.437" stroke="black" stroke-width="3" stroke-linecap="round"/>
</svg>
