<svg width="170" height="51" viewBox="0 0 170 51" fill="none" xmlns="http://www.w3.org/2000/svg">
<circle cx="22.1098" cy="22.1098" r="21.6098" fill="black" stroke="black"/>
<ellipse cx="9.26324" cy="14.6402" rx="2.68902" ry="5.07927" fill="white"/>
<ellipse cx="17.6265" cy="14.6402" rx="2.68902" ry="5.07927" fill="white"/>
<path d="M15.8336 38.2439V46.311C15.8336 47.7961 14.6296 49 13.1445 49V49" stroke="black" stroke-width="3" stroke-linecap="round"/>
<path d="M32.5679 38.2439V46.311C32.5679 47.7961 31.364 49 29.8789 49V49" stroke="black" stroke-width="3" stroke-linecap="round"/>
<path d="M52.4023 7.6814C52.4023 18.7951 52.9982 29.8851 52.9982 40.9832C52.9982 41.7531 52.9982 42.5657 52.9982 41.3473C52.9982 39.6591 52.9982 37.9708 52.9982 36.2825C52.9982 34.4358 53.5402 31.9545 54.372 30.2909C54.75 29.5349 55.7674 27.6426 56.7389 27.6426C58.1521 27.6426 59.6377 27.5031 61.0423 27.6592C63.491 27.9312 64.6884 32.0511 65.0643 34.0812C65.3398 35.5686 65.2133 37.14 65.2133 38.6494C65.2133 39.7567 64.0062 40.2147 63.1112 40.6025C61.343 41.3687 59.6107 42.5897 57.6492 42.8204C56.9535 42.9023 54.8161 43.1956 54.4878 42.539" stroke="#F24E1E" stroke-width="3" stroke-linecap="round"/>
<path d="M73.5556 27.9405C73.4683 27.2418 70.8142 27.3914 70.5929 28.3874C70.0144 30.9906 69.9805 34.0448 69.9805 36.7128C69.9805 41.2847 72.7645 44.6077 77.3956 41.7776C80.205 40.0607 79.7617 35.229 79.448 32.4756C79.2312 30.5731 78.4726 28.1695 77.1308 26.7488C76.1507 25.7111 74.4021 26.1529 72.9598 26.1529" stroke="#F24E1E" stroke-width="3" stroke-linecap="round"/>
<path d="M84.2812 5C84.2812 7.83032 84.2812 10.6606 84.2812 13.491C84.2812 17.763 84.8336 21.9579 84.8771 26.2191C84.9419 32.564 87.2605 38.6327 87.2605 44.9224" stroke="#F24E1E" stroke-width="3" stroke-linecap="round"/>
<path d="M76.832 15.7255C79.5906 15.7255 82.3492 15.7255 85.1078 15.7255C86.7972 15.7255 88.3955 16.3213 89.9409 16.3213" stroke="#F24E1E" stroke-width="3" stroke-linecap="round"/>
<path d="M99.4769 25.2592C95.8284 25.2592 92.1971 25.0163 89.7114 28.2385C88.9423 29.2354 88.8413 30.7109 89.0659 31.946C89.3051 33.2618 93.9224 31.7277 94.71 31.5819C97.5006 31.0651 99.6157 31.1 101.413 33.6012C102.644 35.3136 103.591 38.1283 102.754 40.2218C101.973 42.1756 99.0882 43.0182 97.11 42.8204C95.2789 42.6373 92.6911 40.4045 91.7307 38.9639" stroke="#F24E1E" stroke-width="3" stroke-linecap="round"/>
<path d="M106.031 26.153C106.031 29.1008 106.127 31.8205 106.644 34.6605C107.009 36.671 107.965 38.6987 108.133 40.6356C108.154 40.8733 108.813 43.1999 108.944 43.0687C109.35 42.6634 109.58 40.8563 109.739 40.288C110.011 39.3177 110.495 34.1348 111.262 33.9157C111.971 33.7129 113.314 35.0095 113.777 35.3888C115.221 36.5697 116.211 37.8609 117.353 39.328C117.887 40.0153 118.785 40.9963 119.14 41.7942C119.537 42.6866 119.438 40.9864 119.438 40.7515C119.438 35.3761 119.14 29.9745 119.14 24.6633" stroke="#F24E1E" stroke-width="3" stroke-linecap="round"/>
<path d="M131.354 27.9406C131.354 27.0441 129.293 26.1411 128.987 27.2123C128.411 29.23 126.721 30.6188 126.141 32.7074C125.661 34.4347 125.597 39.4455 127.481 40.3874C128.917 41.1051 132.666 39.0698 133.506 38.1363C134.402 37.1413 133.708 33.3514 133.44 32.1447C133.259 31.3306 132.668 30.7341 132.314 30.0261C131.775 28.9465 132.62 31.6531 132.712 31.9957C133.772 35.9491 135.01 40.4515 137.081 44.0287C137.882 45.4128 141.529 41.8093 141.782 41.0494" stroke="#F24E1E" stroke-width="3" stroke-linecap="round"/>
<path d="M145.059 5.29797C145.059 12.4262 145.059 19.5544 145.059 26.6826C145.059 31.2685 145.654 35.8984 145.654 40.4536" stroke="#F24E1E" stroke-width="3" stroke-linecap="round"/>
<path d="M158.17 32.4094C158.17 31.9444 158.457 29.7625 157.872 29.7281C156.69 29.6586 155.377 29.6514 154.297 30.1915C151.455 31.6123 151.02 35.827 151.02 38.5997C151.02 40.1449 151.336 41.5773 153.171 41.6452C154.983 41.7123 155.493 40.5977 156.68 39.2783C159.665 35.9614 160.52 31.3957 161.282 27.0467C162.178 21.9212 161.938 16.2441 161.745 11.0248C161.713 10.1703 160.553 9.53701 160.553 10.6606C160.553 13.259 160.98 15.8019 161.133 18.3902C161.495 24.5556 160.954 31.324 163.003 37.2425C163.27 38.0133 166.771 45.6352 168.001 41.9432" stroke="#F24E1E" stroke-width="3" stroke-linecap="round"/>
</svg>
