<svg width="346" height="472" viewBox="0 0 346 472" fill="none" xmlns="http://www.w3.org/2000/svg">
<rect width="346" height="472" rx="4" fill="#FFC022"/>
<path d="M10 114.461C24.6174 102.193 43.9186 93.308 60.8392 84.0509C75.9634 75.7766 91.1959 67.4238 106.69 59.6011C145.327 40.0941 193.942 34 237.126 34C243.692 34 271.459 34.6935 271.459 44.3624C271.459 54.2904 273.176 64.15 272.779 74.2303C272.447 82.6586 266.776 91.5946 262.215 98.6124C254.212 110.928 245.981 123.309 237.126 135.118C218.447 160.027 192.634 181.996 169.047 202.846C133.632 234.15 90.5505 267.272 90.5505 316.764C90.5505 323.771 89.4723 331.211 93.3382 337.556C100.897 349.963 112.435 360.198 124.59 368.711C154.667 389.776 193.035 387.539 228.983 387.539C251.667 387.539 272.42 369.361 289.652 357.333C296.877 352.29 304.31 349.719 312.394 346.361C317.909 344.07 320.691 355.053 321.638 357.739C329.727 380.675 326.074 406.371 314.742 427.77C309.41 437.838 304.432 448.039 299.263 458.179C298.049 460.561 296.357 466.869 293.907 468" stroke="#EE7D79" stroke-width="7" stroke-linecap="round"/>
<path d="M33.424 251L33.424 220.712H23.392V217.4H47.488V220.712H37.456L37.456 251H33.424ZM52.3714 251L52.3714 216.44H56.4034V231.272C57.2034 229.8 58.3394 228.664 59.8114 227.864C61.2834 227.032 62.8834 226.616 64.6114 226.616C67.3634 226.616 69.5714 227.48 71.2354 229.208C72.8994 230.904 73.7314 233.528 73.7314 237.08V251H69.7474V237.512C69.7474 232.552 67.7474 230.072 63.7474 230.072C61.6674 230.072 59.9234 230.824 58.5154 232.328C57.1074 233.8 56.4034 235.912 56.4034 238.664V251H52.3714ZM90.7441 251.576C88.4721 251.576 86.4561 251.064 84.6961 250.04C82.9361 248.984 81.5441 247.528 80.5201 245.672C79.5281 243.816 79.0321 241.624 79.0321 239.096C79.0321 236.6 79.5281 234.424 80.5201 232.568C81.5121 230.68 82.8881 229.224 84.6481 228.2C86.4401 227.144 88.5041 226.616 90.8401 226.616C93.1441 226.616 95.1281 227.144 96.7921 228.2C98.4881 229.224 99.7841 230.584 100.68 232.28C101.576 233.976 102.024 235.8 102.024 237.752C102.024 238.104 102.008 238.456 101.976 238.808C101.976 239.16 101.976 239.56 101.976 240.008H83.0161C83.1121 241.832 83.5281 243.352 84.2641 244.568C85.0321 245.752 85.9761 246.648 87.0961 247.256C88.2481 247.864 89.4641 248.168 90.7441 248.168C92.4081 248.168 93.8001 247.784 94.9201 247.016C96.0401 246.248 96.8561 245.208 97.3681 243.896H101.352C100.712 246.104 99.4801 247.944 97.6561 249.416C95.8641 250.856 93.5601 251.576 90.7441 251.576ZM90.7441 230.024C88.8241 230.024 87.1121 230.616 85.6081 231.8C84.1361 232.952 83.2881 234.648 83.0641 236.888H98.0401C97.9441 234.744 97.2081 233.064 95.8321 231.848C94.4561 230.632 92.7601 230.024 90.7441 230.024ZM25.552 307L25.552 273.4H36.592C39.216 273.4 41.376 273.832 43.072 274.696C44.768 275.56 46.016 276.728 46.816 278.2C47.648 279.672 48.064 281.336 48.064 283.192C48.064 285.016 47.664 286.664 46.864 288.136C46.064 289.608 44.816 290.792 43.12 291.688C41.424 292.552 39.248 292.984 36.592 292.984H29.584V307H25.552ZM29.584 289.576H36.496C39.184 289.576 41.088 289.016 42.208 287.896C43.36 286.744 43.936 285.176 43.936 283.192C43.936 281.176 43.36 279.608 42.208 278.488C41.088 277.336 39.184 276.76 36.496 276.76H29.584L29.584 289.576ZM53.5489 307V273.4H57.5809L57.5809 288.232H75.0049L75.0049 273.4H79.0369L79.0369 307H75.0049V291.544H57.5809V307H53.5489ZM84.215 307L96.599 273.4H100.871L113.207 307H108.935L105.863 298.36H91.559L88.439 307H84.215ZM92.759 295.096H104.663L98.711 278.488L92.759 295.096ZM118.402 307V273.4H129.25C131.874 273.4 134.018 273.832 135.682 274.696C137.346 275.56 138.578 276.744 139.378 278.248C140.178 279.752 140.578 281.416 140.578 283.24C140.578 285.352 140.002 287.256 138.85 288.952C137.73 290.648 135.97 291.848 133.57 292.552L140.914 307H136.162L129.346 293.128H129.058H122.434V307H118.402ZM122.434 289.96H128.962C131.554 289.96 133.442 289.336 134.626 288.088C135.81 286.84 136.402 285.24 136.402 283.288C136.402 281.304 135.81 279.736 134.626 278.584C133.474 277.4 131.57 276.808 128.914 276.808H122.434V289.96ZM147.055 307V273.4H151.759L163.855 296.824L175.855 273.4H180.607L180.607 307H176.575L176.575 280.6L165.343 302.2H162.319L151.087 280.648L151.087 307H147.055ZM185.784 307L198.168 273.4H202.44L214.776 307H210.504L207.432 298.36H193.128L190.008 307H185.784ZM194.328 295.096H206.232L200.28 278.488L194.328 295.096ZM25.552 363L25.552 329.4H30.256L42.352 352.824L54.352 329.4H59.104V363H55.072V336.6L43.84 358.2H40.816L29.584 336.648L29.584 363H25.552ZM64.2806 363L76.6646 329.4H80.9366L93.2726 363H89.0006L85.9286 354.36H71.6246L68.5046 363H64.2806ZM72.8246 351.096H84.7286L78.7766 334.488L72.8246 351.096ZM98.4676 363L98.4676 329.4H102.5L120.404 356.328L120.404 329.4H124.436L124.436 363H120.404L102.5 336.072L102.5 363H98.4676Z" fill="black"/>
<path d="M0 424H346V468C346 470.209 344.209 472 342 472H3.99999C1.79086 472 0 470.209 0 468V424Z" fill="black"/>
<path d="M128.656 456V438.72H130.672V456H128.656ZM139.528 456.288C138.392 456.288 137.384 456.032 136.504 455.52C135.624 454.992 134.928 454.264 134.416 453.336C133.92 452.408 133.672 451.312 133.672 450.048C133.672 448.8 133.92 447.712 134.416 446.784C134.912 445.84 135.6 445.112 136.48 444.6C137.376 444.072 138.408 443.808 139.576 443.808C140.728 443.808 141.72 444.072 142.552 444.6C143.4 445.112 144.048 445.792 144.496 446.64C144.944 447.488 145.168 448.4 145.168 449.376C145.168 449.552 145.16 449.728 145.144 449.904C145.144 450.08 145.144 450.28 145.144 450.504H135.664C135.712 451.416 135.92 452.176 136.288 452.784C136.672 453.376 137.144 453.824 137.704 454.128C138.28 454.432 138.888 454.584 139.528 454.584C140.36 454.584 141.056 454.392 141.616 454.008C142.176 453.624 142.584 453.104 142.84 452.448H144.832C144.512 453.552 143.896 454.472 142.984 455.208C142.088 455.928 140.936 456.288 139.528 456.288ZM139.528 445.512C138.568 445.512 137.712 445.808 136.96 446.4C136.224 446.976 135.8 447.824 135.688 448.944H143.176C143.128 447.872 142.76 447.032 142.072 446.424C141.384 445.816 140.536 445.512 139.528 445.512ZM152.346 456C151.258 456 150.402 455.736 149.778 455.208C149.154 454.68 148.842 453.728 148.842 452.352V445.8H146.778V444.096H148.842L149.106 441.24H150.858V444.096H154.362V445.8H150.858V452.352C150.858 453.104 151.01 453.616 151.314 453.888C151.618 454.144 152.154 454.272 152.922 454.272H154.17V456H152.346ZM161.683 456.288C160.259 456.288 159.075 455.928 158.131 455.208C157.187 454.488 156.635 453.512 156.475 452.28H158.539C158.667 452.904 158.995 453.448 159.523 453.912C160.067 454.36 160.795 454.584 161.707 454.584C162.555 454.584 163.179 454.408 163.579 454.056C163.979 453.688 164.179 453.256 164.179 452.76C164.179 452.04 163.915 451.56 163.387 451.32C162.875 451.08 162.147 450.864 161.203 450.672C160.563 450.544 159.923 450.36 159.283 450.12C158.643 449.88 158.107 449.544 157.675 449.112C157.243 448.664 157.027 448.08 157.027 447.36C157.027 446.32 157.411 445.472 158.179 444.816C158.963 444.144 160.019 443.808 161.347 443.808C162.611 443.808 163.643 444.128 164.443 444.768C165.259 445.392 165.731 446.288 165.859 447.456H163.867C163.787 446.848 163.523 446.376 163.075 446.04C162.643 445.688 162.059 445.512 161.323 445.512C160.603 445.512 160.043 445.664 159.643 445.968C159.259 446.272 159.067 446.672 159.067 447.168C159.067 447.648 159.315 448.024 159.811 448.296C160.323 448.568 161.011 448.8 161.875 448.992C162.611 449.152 163.307 449.352 163.963 449.592C164.635 449.816 165.179 450.16 165.595 450.624C166.027 451.072 166.243 451.728 166.243 452.592C166.259 453.664 165.851 454.552 165.019 455.256C164.203 455.944 163.091 456.288 161.683 456.288ZM182.067 456.288C180.915 456.288 179.867 456.064 178.923 455.616C177.995 455.152 177.251 454.44 176.691 453.48C176.131 452.52 175.851 451.296 175.851 449.808V439.2H177.867V449.832C177.867 451.464 178.259 452.648 179.043 453.384C179.827 454.12 180.851 454.488 182.115 454.488C183.379 454.488 184.395 454.12 185.163 453.384C185.931 452.648 186.315 451.464 186.315 449.832V439.2H188.331V449.808C188.331 451.296 188.051 452.52 187.491 453.48C186.931 454.44 186.179 455.152 185.235 455.616C184.291 456.064 183.235 456.288 182.067 456.288ZM197.297 456.288C196.065 456.288 194.993 456.064 194.081 455.616C193.169 455.168 192.465 454.544 191.969 453.744C191.473 452.944 191.225 452.016 191.225 450.96H193.337C193.337 451.616 193.489 452.224 193.793 452.784C194.097 453.328 194.537 453.768 195.113 454.104C195.705 454.424 196.433 454.584 197.297 454.584C198.433 454.584 199.313 454.312 199.937 453.768C200.561 453.224 200.873 452.544 200.873 451.728C200.873 451.056 200.729 450.52 200.441 450.12C200.153 449.704 199.761 449.368 199.265 449.112C198.785 448.856 198.225 448.632 197.585 448.44C196.961 448.248 196.305 448.032 195.617 447.792C194.321 447.344 193.361 446.792 192.737 446.136C192.113 445.464 191.801 444.592 191.801 443.52C191.785 442.624 191.993 441.832 192.425 441.144C192.857 440.44 193.465 439.896 194.249 439.512C195.049 439.112 195.993 438.912 197.081 438.912C198.153 438.912 199.081 439.112 199.865 439.512C200.665 439.912 201.281 440.464 201.713 441.168C202.161 441.872 202.393 442.672 202.409 443.568H200.297C200.297 443.104 200.177 442.648 199.937 442.2C199.697 441.736 199.329 441.36 198.833 441.072C198.353 440.784 197.745 440.64 197.009 440.64C196.097 440.624 195.345 440.856 194.753 441.336C194.177 441.816 193.889 442.48 193.889 443.328C193.889 444.048 194.089 444.6 194.489 444.984C194.905 445.368 195.481 445.688 196.217 445.944C196.953 446.184 197.801 446.464 198.761 446.784C199.561 447.072 200.281 447.408 200.921 447.792C201.561 448.176 202.057 448.672 202.409 449.28C202.777 449.888 202.961 450.664 202.961 451.608C202.961 452.408 202.753 453.168 202.337 453.888C201.921 454.592 201.289 455.168 200.441 455.616C199.609 456.064 198.561 456.288 197.297 456.288ZM206.02 456V439.2H216.412V440.856H208.036V446.712H215.692V448.344H208.036V454.344H216.412V456H206.02Z" fill="#F5F5F5"/>
<path d="M178 233C176.343 233 175 234.343 175 236C175 237.657 176.343 239 178 239V233ZM180 190V233H186V190H180ZM180 233H178V239H180V233ZM180 233V239C183.314 239 186 236.314 186 233H180Z" fill="black"/>
<path d="M247 233C245.343 233 244 234.343 244 236C244 237.657 245.343 239 247 239V233ZM249 190V233H255V190H249ZM249 233H247V239H249V233ZM249 233V239C252.314 239 255 236.314 255 233H249Z" fill="black"/>
<path d="M325.5 111.5C325.5 167.267 278.951 212.5 221.5 212.5C164.049 212.5 117.5 167.267 117.5 111.5C117.5 55.7329 164.049 10.5 221.5 10.5C278.951 10.5 325.5 55.7329 325.5 111.5Z" fill="black" stroke="black"/>
<ellipse cx="163.5" cy="83.5" rx="14.5" ry="27.5" fill="#F5F5F5"/>
<ellipse cx="208.5" cy="83.5" rx="14.5" ry="27.5" fill="#F5F5F5"/>
<g filter="url(#filter0_f_1461_4492)">
<path d="M209 163.619C211.855 163.619 214.042 165.581 216.571 166.714C221.601 168.968 226.695 171.412 232.008 172.905C239.579 175.033 246.307 176 254.131 176C266.482 176 278.943 173.06 289.332 166.272C293.356 163.643 301.644 156.668 302.753 151.68C304.491 143.866 310.467 136.83 310.767 128.441C311.188 116.647 311.128 104.524 309.833 92.8707C308.922 84.6845 304.585 78.0069 301.721 70.5654C300.129 66.4284 295.632 62.8101 292.626 59.8057C290.505 57.6866 287.509 54.3399 284.661 53.0748C281.994 51.8902 269.175 47.726 269.175 46" stroke="#FFC022" stroke-width="5" stroke-linecap="round"/>
</g>
<defs>
<filter id="filter0_f_1461_4492" x="176.5" y="13.5" width="167" height="195" filterUnits="userSpaceOnUse" color-interpolation-filters="sRGB">
<feFlood flood-opacity="0" result="BackgroundImageFix"/>
<feBlend mode="normal" in="SourceGraphic" in2="BackgroundImageFix" result="shape"/>
<feGaussianBlur stdDeviation="15" result="effect1_foregroundBlur_1461_4492"/>
</filter>
</defs>
</svg>
