<svg width="346" height="472" viewBox="0 0 346 472" fill="none" xmlns="http://www.w3.org/2000/svg">
<rect width="346" height="472" rx="4" fill="#FFC022"/>
<path d="M10 114.461C24.6174 102.193 43.9186 93.308 60.8392 84.0509C75.9634 75.7766 91.1959 67.4238 106.69 59.6011C145.327 40.0941 193.942 34 237.126 34C243.692 34 271.459 34.6935 271.459 44.3624C271.459 54.2904 273.176 64.15 272.779 74.2303C272.447 82.6586 266.776 91.5946 262.215 98.6124C254.212 110.928 245.981 123.309 237.126 135.118C218.447 160.027 192.634 181.996 169.047 202.846C133.632 234.15 90.5505 267.272 90.5505 316.764C90.5505 323.771 89.4723 331.211 93.3382 337.556C100.897 349.963 112.435 360.198 124.59 368.711C154.667 389.776 193.035 387.539 228.983 387.539C251.667 387.539 272.42 369.361 289.652 357.333C296.877 352.29 304.31 349.719 312.394 346.361C317.909 344.07 320.691 355.053 321.638 357.739C329.727 380.675 326.074 406.371 314.742 427.77C309.41 437.838 304.432 448.039 299.263 458.179C298.049 460.561 296.357 466.869 293.907 468" stroke="#EE7D79" stroke-width="7" stroke-linecap="round"/>
<path d="M33.232 251.576C31.248 251.576 29.6 251.24 28.288 250.568C26.976 249.896 26 249 25.36 247.88C24.72 246.76 24.4 245.544 24.4 244.232C24.4 241.8 25.328 239.928 27.184 238.616C29.04 237.304 31.568 236.648 34.768 236.648H41.2V236.36C41.2 234.28 40.656 232.712 39.568 231.656C38.48 230.568 37.024 230.024 35.2 230.024C33.632 230.024 32.272 230.424 31.12 231.224C30 231.992 29.296 233.128 29.008 234.632H24.88C25.04 232.904 25.616 231.448 26.608 230.264C27.632 229.08 28.896 228.184 30.4 227.576C31.904 226.936 33.504 226.616 35.2 226.616C38.528 226.616 41.024 227.512 42.688 229.304C44.384 231.064 45.232 233.416 45.232 236.36L45.232 251H41.632L41.392 246.728C40.72 248.072 39.728 249.224 38.416 250.184C37.136 251.112 35.408 251.576 33.232 251.576ZM33.856 248.168C35.392 248.168 36.704 247.768 37.792 246.968C38.912 246.168 39.76 245.128 40.336 243.848C40.912 242.568 41.2 241.224 41.2 239.816V239.768H35.104C32.736 239.768 31.056 240.184 30.064 241.016C29.104 241.816 28.624 242.824 28.624 244.04C28.624 245.288 29.072 246.296 29.968 247.064C30.896 247.8 32.192 248.168 33.856 248.168ZM51.4808 251L51.4808 216.44H55.5128L55.5128 251H51.4808ZM62.3214 251L62.3214 216.44H66.3534V251H62.3214ZM25.552 307L25.552 273.4H29.584L29.584 288.232H47.008V273.4H51.04V307H47.008V291.544H29.584V307H25.552ZM58.3301 307L58.3301 273.4H79.1141L79.1141 276.712H62.3621V288.424H77.6741V291.688H62.3621V303.688H79.1141V307H58.3301ZM83.5119 307L95.8959 273.4H100.168L112.504 307H108.232L105.16 298.36H90.8559L87.7359 307H83.5119ZM92.0559 295.096H103.96L98.0079 278.488L92.0559 295.096ZM117.699 307V273.4H121.731V303.784H137.379V307H117.699ZM145.646 307V276.712H135.614V273.4H159.71V276.712H149.678V307H145.646ZM164.833 307L164.833 273.4H168.865V288.232H186.289V273.4H190.321L190.321 307H186.289L186.289 291.544H168.865L168.865 307H164.833ZM25.552 363L25.552 329.4H30.256L42.352 352.824L54.352 329.4H59.104V363H55.072V336.6L43.84 358.2H40.816L29.584 336.648L29.584 363H25.552ZM64.2806 363L76.6646 329.4H80.9366L93.2726 363H89.0006L85.9286 354.36H71.6246L68.5046 363H64.2806ZM72.8246 351.096H84.7286L78.7766 334.488L72.8246 351.096ZM98.4676 363L98.4676 329.4H102.5L120.404 356.328L120.404 329.4H124.436L124.436 363H120.404L102.5 336.072L102.5 363H98.4676Z" fill="black"/>
<path d="M0 424H346V468C346 470.209 344.209 472 342 472H3.99999C1.79086 472 0 470.209 0 468V424Z" fill="black"/>
<path d="M128.656 456V438.72H130.672V456H128.656ZM139.528 456.288C138.392 456.288 137.384 456.032 136.504 455.52C135.624 454.992 134.928 454.264 134.416 453.336C133.92 452.408 133.672 451.312 133.672 450.048C133.672 448.8 133.92 447.712 134.416 446.784C134.912 445.84 135.6 445.112 136.48 444.6C137.376 444.072 138.408 443.808 139.576 443.808C140.728 443.808 141.72 444.072 142.552 444.6C143.4 445.112 144.048 445.792 144.496 446.64C144.944 447.488 145.168 448.4 145.168 449.376C145.168 449.552 145.16 449.728 145.144 449.904C145.144 450.08 145.144 450.28 145.144 450.504H135.664C135.712 451.416 135.92 452.176 136.288 452.784C136.672 453.376 137.144 453.824 137.704 454.128C138.28 454.432 138.888 454.584 139.528 454.584C140.36 454.584 141.056 454.392 141.616 454.008C142.176 453.624 142.584 453.104 142.84 452.448H144.832C144.512 453.552 143.896 454.472 142.984 455.208C142.088 455.928 140.936 456.288 139.528 456.288ZM139.528 445.512C138.568 445.512 137.712 445.808 136.96 446.4C136.224 446.976 135.8 447.824 135.688 448.944H143.176C143.128 447.872 142.76 447.032 142.072 446.424C141.384 445.816 140.536 445.512 139.528 445.512ZM152.346 456C151.258 456 150.402 455.736 149.778 455.208C149.154 454.68 148.842 453.728 148.842 452.352V445.8H146.778V444.096H148.842L149.106 441.24H150.858V444.096H154.362V445.8H150.858V452.352C150.858 453.104 151.01 453.616 151.314 453.888C151.618 454.144 152.154 454.272 152.922 454.272H154.17V456H152.346ZM161.683 456.288C160.259 456.288 159.075 455.928 158.131 455.208C157.187 454.488 156.635 453.512 156.475 452.28H158.539C158.667 452.904 158.995 453.448 159.523 453.912C160.067 454.36 160.795 454.584 161.707 454.584C162.555 454.584 163.179 454.408 163.579 454.056C163.979 453.688 164.179 453.256 164.179 452.76C164.179 452.04 163.915 451.56 163.387 451.32C162.875 451.08 162.147 450.864 161.203 450.672C160.563 450.544 159.923 450.36 159.283 450.12C158.643 449.88 158.107 449.544 157.675 449.112C157.243 448.664 157.027 448.08 157.027 447.36C157.027 446.32 157.411 445.472 158.179 444.816C158.963 444.144 160.019 443.808 161.347 443.808C162.611 443.808 163.643 444.128 164.443 444.768C165.259 445.392 165.731 446.288 165.859 447.456H163.867C163.787 446.848 163.523 446.376 163.075 446.04C162.643 445.688 162.059 445.512 161.323 445.512C160.603 445.512 160.043 445.664 159.643 445.968C159.259 446.272 159.067 446.672 159.067 447.168C159.067 447.648 159.315 448.024 159.811 448.296C160.323 448.568 161.011 448.8 161.875 448.992C162.611 449.152 163.307 449.352 163.963 449.592C164.635 449.816 165.179 450.16 165.595 450.624C166.027 451.072 166.243 451.728 166.243 452.592C166.259 453.664 165.851 454.552 165.019 455.256C164.203 455.944 163.091 456.288 161.683 456.288ZM182.067 456.288C180.915 456.288 179.867 456.064 178.923 455.616C177.995 455.152 177.251 454.44 176.691 453.48C176.131 452.52 175.851 451.296 175.851 449.808V439.2H177.867V449.832C177.867 451.464 178.259 452.648 179.043 453.384C179.827 454.12 180.851 454.488 182.115 454.488C183.379 454.488 184.395 454.12 185.163 453.384C185.931 452.648 186.315 451.464 186.315 449.832V439.2H188.331V449.808C188.331 451.296 188.051 452.52 187.491 453.48C186.931 454.44 186.179 455.152 185.235 455.616C184.291 456.064 183.235 456.288 182.067 456.288ZM197.297 456.288C196.065 456.288 194.993 456.064 194.081 455.616C193.169 455.168 192.465 454.544 191.969 453.744C191.473 452.944 191.225 452.016 191.225 450.96H193.337C193.337 451.616 193.489 452.224 193.793 452.784C194.097 453.328 194.537 453.768 195.113 454.104C195.705 454.424 196.433 454.584 197.297 454.584C198.433 454.584 199.313 454.312 199.937 453.768C200.561 453.224 200.873 452.544 200.873 451.728C200.873 451.056 200.729 450.52 200.441 450.12C200.153 449.704 199.761 449.368 199.265 449.112C198.785 448.856 198.225 448.632 197.585 448.44C196.961 448.248 196.305 448.032 195.617 447.792C194.321 447.344 193.361 446.792 192.737 446.136C192.113 445.464 191.801 444.592 191.801 443.52C191.785 442.624 191.993 441.832 192.425 441.144C192.857 440.44 193.465 439.896 194.249 439.512C195.049 439.112 195.993 438.912 197.081 438.912C198.153 438.912 199.081 439.112 199.865 439.512C200.665 439.912 201.281 440.464 201.713 441.168C202.161 441.872 202.393 442.672 202.409 443.568H200.297C200.297 443.104 200.177 442.648 199.937 442.2C199.697 441.736 199.329 441.36 198.833 441.072C198.353 440.784 197.745 440.64 197.009 440.64C196.097 440.624 195.345 440.856 194.753 441.336C194.177 441.816 193.889 442.48 193.889 443.328C193.889 444.048 194.089 444.6 194.489 444.984C194.905 445.368 195.481 445.688 196.217 445.944C196.953 446.184 197.801 446.464 198.761 446.784C199.561 447.072 200.281 447.408 200.921 447.792C201.561 448.176 202.057 448.672 202.409 449.28C202.777 449.888 202.961 450.664 202.961 451.608C202.961 452.408 202.753 453.168 202.337 453.888C201.921 454.592 201.289 455.168 200.441 455.616C199.609 456.064 198.561 456.288 197.297 456.288ZM206.02 456V439.2H216.412V440.856H208.036V446.712H215.692V448.344H208.036V454.344H216.412V456H206.02Z" fill="#F5F5F5"/>
<path d="M186 202C184.343 202 183 203.343 183 205C183 206.657 184.343 208 186 208V202ZM188 159V202H194V159H188ZM188 202H186V208H188V202ZM188 202V208C191.314 208 194 205.314 194 202H188Z" fill="black"/>
<path d="M255 202C253.343 202 252 203.343 252 205C252 206.657 253.343 208 255 208V202ZM257 159V202H263V159H257ZM257 202H255V208H257V202ZM257 202V208C260.314 208 263 205.314 263 202H257Z" fill="black"/>
<path d="M298.5 116.847C298.5 156.789 265.159 189.194 224 189.194C182.841 189.194 149.5 156.789 149.5 116.847C149.5 76.9044 182.841 44.5 224 44.5C265.159 44.5 298.5 76.9044 298.5 116.847Z" fill="black" stroke="black"/>
<ellipse cx="178.5" cy="102.5" rx="10.5" ry="19.5" fill="#F5F5F5"/>
<ellipse cx="210" cy="102.5" rx="10" ry="19.5" fill="#F5F5F5"/>
<g filter="url(#filter0_f_1461_4024)">
<path d="M178 169.619C180.855 169.619 183.042 171.581 185.571 172.714C190.601 174.968 195.695 177.412 201.008 178.905C208.579 181.033 215.307 182 223.131 182C235.482 182 247.943 179.06 258.332 172.272C262.356 169.643 270.644 162.668 271.753 157.68C273.491 149.866 279.467 142.83 279.767 134.441C280.188 122.647 280.128 110.524 278.833 98.8707C277.922 90.6845 273.585 84.0069 270.721 76.5654C269.129 72.4284 264.632 68.8101 261.626 65.8057C259.505 63.6866 256.509 60.3399 253.661 59.0748C250.994 57.8902 238.175 53.726 238.175 52" stroke="#FFC022" stroke-width="5" stroke-linecap="round"/>
</g>
<defs>
<filter id="filter0_f_1461_4024" x="145.5" y="19.5" width="167" height="195" filterUnits="userSpaceOnUse" color-interpolation-filters="sRGB">
<feFlood flood-opacity="0" result="BackgroundImageFix"/>
<feBlend mode="normal" in="SourceGraphic" in2="BackgroundImageFix" result="shape"/>
<feGaussianBlur stdDeviation="15" result="effect1_foregroundBlur_1461_4024"/>
</filter>
</defs>
</svg>
