<svg width="79" height="30" viewBox="0 0 79 30" fill="none" xmlns="http://www.w3.org/2000/svg">
<circle cx="15" cy="15" r="15" fill="#F24E1E"/>
<path d="M14.0489 9.92705C14.3483 9.00574 15.6517 9.00574 15.9511 9.92705L16.5716 11.8369C16.7055 12.2489 17.0894 12.5279 17.5227 12.5279H19.5308C20.4995 12.5279 20.9023 13.7675 20.1186 14.3369L18.494 15.5172C18.1435 15.7719 17.9968 16.2232 18.1307 16.6353L18.7512 18.5451C19.0506 19.4664 17.9961 20.2325 17.2124 19.6631L15.5878 18.4828C15.2373 18.2281 14.7627 18.2281 14.4122 18.4828L12.7876 19.6631C12.0039 20.2325 10.9494 19.4664 11.2488 18.5451L11.8693 16.6353C12.0032 16.2232 11.8565 15.7719 11.506 15.5172L9.88144 14.3369C9.09773 13.7675 9.50051 12.5279 10.4692 12.5279H12.4773C12.9106 12.5279 13.2945 12.2489 13.4284 11.8369L14.0489 9.92705Z" fill="#F5F5F5"/>
<circle cx="31" cy="15" r="15" fill="#F24E1E" fill-opacity="0.8"/>
<path d="M30.0489 9.92705C30.3483 9.00574 31.6517 9.00574 31.9511 9.92705L32.5716 11.8369C32.7055 12.2489 33.0894 12.5279 33.5227 12.5279H35.5308C36.4995 12.5279 36.9023 13.7675 36.1186 14.3369L34.494 15.5172C34.1435 15.7719 33.9968 16.2232 34.1307 16.6353L34.7512 18.5451C35.0506 19.4664 33.9961 20.2325 33.2124 19.6631L31.5878 18.4828C31.2373 18.2281 30.7627 18.2281 30.4122 18.4828L28.7876 19.6631C28.0039 20.2325 26.9494 19.4664 27.2488 18.5451L27.8693 16.6353C28.0032 16.2232 27.8565 15.7719 27.506 15.5172L25.8814 14.3369C25.0977 13.7675 25.5005 12.5279 26.4692 12.5279H28.4773C28.9106 12.5279 29.2945 12.2489 29.4284 11.8369L30.0489 9.92705Z" fill="#F5F5F5" fill-opacity="0.8"/>
<circle cx="49" cy="15" r="15" fill="#F24E1E" fill-opacity="0.7"/>
<path d="M48.0489 9.92705C48.3483 9.00574 49.6517 9.00574 49.9511 9.92705L50.5716 11.8369C50.7055 12.2489 51.0894 12.5279 51.5227 12.5279H53.5308C54.4995 12.5279 54.9023 13.7675 54.1186 14.3369L52.494 15.5172C52.1435 15.7719 51.9968 16.2232 52.1307 16.6353L52.7512 18.5451C53.0506 19.4664 51.9961 20.2325 51.2124 19.6631L49.5878 18.4828C49.2373 18.2281 48.7627 18.2281 48.4122 18.4828L46.7876 19.6631C46.0039 20.2325 44.9494 19.4664 45.2488 18.5451L45.8693 16.6353C46.0032 16.2232 45.8565 15.7719 45.506 15.5172L43.8814 14.3369C43.0977 13.7675 43.5005 12.5279 44.4692 12.5279H46.4773C46.9106 12.5279 47.2945 12.2489 47.4284 11.8369L48.0489 9.92705Z" fill="#F5F5F5" fill-opacity="0.7"/>
<circle cx="64" cy="15" r="15" fill="#F24E1E" fill-opacity="0.6"/>
<path d="M63.0489 9.92705C63.3483 9.00574 64.6517 9.00574 64.9511 9.92705L65.5716 11.8369C65.7055 12.2489 66.0894 12.5279 66.5227 12.5279H68.5308C69.4995 12.5279 69.9023 13.7675 69.1186 14.3369L67.494 15.5172C67.1435 15.7719 66.9968 16.2232 67.1307 16.6353L67.7512 18.5451C68.0506 19.4664 66.9961 20.2325 66.2124 19.6631L64.5878 18.4828C64.2373 18.2281 63.7627 18.2281 63.4122 18.4828L61.7876 19.6631C61.0039 20.2325 59.9494 19.4664 60.2488 18.5451L60.8693 16.6353C61.0032 16.2232 60.8565 15.7719 60.506 15.5172L58.8814 14.3369C58.0977 13.7675 58.5005 12.5279 59.4692 12.5279H61.4773C61.9106 12.5279 62.2945 12.2489 62.4284 11.8369L63.0489 9.92705Z" fill="#F5F5F5" fill-opacity="0.6"/>
</svg>
